<?xml version="1.0" encoding="utf-8" standalone="no"?>
<!DOCTYPE svg PUBLIC "-//W3C//DTD SVG 1.1//EN"
  "http://www.w3.org/Graphics/SVG/1.1/DTD/svg11.dtd">
<svg xmlns:xlink="http://www.w3.org/1999/xlink" width="460.8pt" height="345.6pt" viewBox="0 0 460.8 345.6" xmlns="http://www.w3.org/2000/svg" version="1.1">
 <metadata>
  <rdf:RDF xmlns:dc="http://purl.org/dc/elements/1.1/" xmlns:cc="http://creativecommons.org/ns#" xmlns:rdf="http://www.w3.org/1999/02/22-rdf-syntax-ns#">
   <cc:Work>
    <dc:type rdf:resource="http://purl.org/dc/dcmitype/StillImage"/>
    <dc:date>2023-04-10T21:55:09.875639</dc:date>
    <dc:format>image/svg+xml</dc:format>
    <dc:creator>
     <cc:Agent>
      <dc:title>Matplotlib v3.6.2, https://matplotlib.org/</dc:title>
     </cc:Agent>
    </dc:creator>
   </cc:Work>
  </rdf:RDF>
 </metadata>
 <defs>
  <style type="text/css">*{stroke-linejoin: round; stroke-linecap: butt}</style>
 </defs>
 <g id="figure_1">
  <g id="patch_1">
   <path d="M 0 345.6 
L 460.8 345.6 
L 460.8 0 
L 0 0 
z
" style="fill: #ffffff"/>
  </g>
  <g id="axes_1">
   <g id="patch_2">
    <path d="M 57.6 307.584 
L 414.72 307.584 
L 414.72 41.472 
L 57.6 41.472 
z
" style="fill: #ffffff"/>
   </g>
   <g id="matplotlib.axis_1">
    <g id="xtick_1">
     <g id="line2d_1">
      <defs>
       <path id="m85b9a4b772" d="M 0 0 
L 0 3.5 
" style="stroke: #000000; stroke-width: 0.8"/>
      </defs>
      <g>
       <use xlink:href="#m85b9a4b772" x="73.832727" y="307.584" style="stroke: #000000; stroke-width: 0.8"/>
      </g>
     </g>
     <g id="text_1">
      <!-- 0 -->
      <g transform="translate(68.832727 328.4715) scale(0.2 -0.2)">
       <defs>
        <path id="TimesNewRomanPSMT-30" d="M 231 2094 
Q 231 2819 450 3342 
Q 669 3866 1031 4122 
Q 1313 4325 1613 4325 
Q 2100 4325 2488 3828 
Q 2972 3213 2972 2159 
Q 2972 1422 2759 906 
Q 2547 391 2217 158 
Q 1888 -75 1581 -75 
Q 975 -75 572 641 
Q 231 1244 231 2094 
z
M 844 2016 
Q 844 1141 1059 588 
Q 1238 122 1591 122 
Q 1759 122 1940 273 
Q 2122 425 2216 781 
Q 2359 1319 2359 2297 
Q 2359 3022 2209 3506 
Q 2097 3866 1919 4016 
Q 1791 4119 1609 4119 
Q 1397 4119 1231 3928 
Q 1006 3669 925 3112 
Q 844 2556 844 2016 
z
" transform="scale(0.015625)"/>
       </defs>
       <use xlink:href="#TimesNewRomanPSMT-30"/>
      </g>
     </g>
    </g>
    <g id="xtick_2">
     <g id="line2d_2">
      <g>
       <use xlink:href="#m85b9a4b772" x="155.404221" y="307.584" style="stroke: #000000; stroke-width: 0.8"/>
      </g>
     </g>
     <g id="text_2">
      <!-- 50 -->
      <g transform="translate(145.404221 328.4715) scale(0.2 -0.2)">
       <defs>
        <path id="TimesNewRomanPSMT-35" d="M 2778 4238 
L 2534 3706 
L 1259 3706 
L 981 3138 
Q 1809 3016 2294 2522 
Q 2709 2097 2709 1522 
Q 2709 1188 2573 903 
Q 2438 619 2231 419 
Q 2025 219 1772 97 
Q 1413 -75 1034 -75 
Q 653 -75 479 54 
Q 306 184 306 341 
Q 306 428 378 495 
Q 450 563 559 563 
Q 641 563 702 538 
Q 763 513 909 409 
Q 1144 247 1384 247 
Q 1750 247 2026 523 
Q 2303 800 2303 1197 
Q 2303 1581 2056 1914 
Q 1809 2247 1375 2428 
Q 1034 2569 447 2591 
L 1259 4238 
L 2778 4238 
z
" transform="scale(0.015625)"/>
       </defs>
       <use xlink:href="#TimesNewRomanPSMT-35"/>
       <use xlink:href="#TimesNewRomanPSMT-30" x="50"/>
      </g>
     </g>
    </g>
    <g id="xtick_3">
     <g id="line2d_3">
      <g>
       <use xlink:href="#m85b9a4b772" x="236.975715" y="307.584" style="stroke: #000000; stroke-width: 0.8"/>
      </g>
     </g>
     <g id="text_3">
      <!-- 100 -->
      <g transform="translate(221.975715 328.4715) scale(0.2 -0.2)">
       <defs>
        <path id="TimesNewRomanPSMT-31" d="M 750 3822 
L 1781 4325 
L 1884 4325 
L 1884 747 
Q 1884 391 1914 303 
Q 1944 216 2037 169 
Q 2131 122 2419 116 
L 2419 0 
L 825 0 
L 825 116 
Q 1125 122 1212 167 
Q 1300 213 1334 289 
Q 1369 366 1369 747 
L 1369 3034 
Q 1369 3497 1338 3628 
Q 1316 3728 1258 3775 
Q 1200 3822 1119 3822 
Q 1003 3822 797 3725 
L 750 3822 
z
" transform="scale(0.015625)"/>
       </defs>
       <use xlink:href="#TimesNewRomanPSMT-31"/>
       <use xlink:href="#TimesNewRomanPSMT-30" x="50"/>
       <use xlink:href="#TimesNewRomanPSMT-30" x="100"/>
      </g>
     </g>
    </g>
    <g id="xtick_4">
     <g id="line2d_4">
      <g>
       <use xlink:href="#m85b9a4b772" x="318.547209" y="307.584" style="stroke: #000000; stroke-width: 0.8"/>
      </g>
     </g>
     <g id="text_4">
      <!-- 150 -->
      <g transform="translate(303.547209 328.4715) scale(0.2 -0.2)">
       <use xlink:href="#TimesNewRomanPSMT-31"/>
       <use xlink:href="#TimesNewRomanPSMT-35" x="50"/>
       <use xlink:href="#TimesNewRomanPSMT-30" x="100"/>
      </g>
     </g>
    </g>
    <g id="xtick_5">
     <g id="line2d_5">
      <g>
       <use xlink:href="#m85b9a4b772" x="400.118703" y="307.584" style="stroke: #000000; stroke-width: 0.8"/>
      </g>
     </g>
     <g id="text_5">
      <!-- 200 -->
      <g transform="translate(385.118703 328.4715) scale(0.2 -0.2)">
       <defs>
        <path id="TimesNewRomanPSMT-32" d="M 2934 816 
L 2638 0 
L 138 0 
L 138 116 
Q 1241 1122 1691 1759 
Q 2141 2397 2141 2925 
Q 2141 3328 1894 3587 
Q 1647 3847 1303 3847 
Q 991 3847 742 3664 
Q 494 3481 375 3128 
L 259 3128 
Q 338 3706 661 4015 
Q 984 4325 1469 4325 
Q 1984 4325 2329 3994 
Q 2675 3663 2675 3213 
Q 2675 2891 2525 2569 
Q 2294 2063 1775 1497 
Q 997 647 803 472 
L 1909 472 
Q 2247 472 2383 497 
Q 2519 522 2628 598 
Q 2738 675 2819 816 
L 2934 816 
z
" transform="scale(0.015625)"/>
       </defs>
       <use xlink:href="#TimesNewRomanPSMT-32"/>
       <use xlink:href="#TimesNewRomanPSMT-30" x="50"/>
       <use xlink:href="#TimesNewRomanPSMT-30" x="100"/>
      </g>
     </g>
    </g>
    <g id="text_6">
     <!-- epoch -->
     <g transform="translate(212.281875 350.637125) scale(0.2 -0.2)">
      <defs>
       <path id="TimesNewRomanPSMT-65" d="M 681 1784 
Q 678 1147 991 784 
Q 1303 422 1725 422 
Q 2006 422 2214 576 
Q 2422 731 2563 1106 
L 2659 1044 
Q 2594 616 2278 264 
Q 1963 -88 1488 -88 
Q 972 -88 605 314 
Q 238 716 238 1394 
Q 238 2128 614 2539 
Q 991 2950 1559 2950 
Q 2041 2950 2350 2633 
Q 2659 2316 2659 1784 
L 681 1784 
z
M 681 1966 
L 2006 1966 
Q 1991 2241 1941 2353 
Q 1863 2528 1708 2628 
Q 1553 2728 1384 2728 
Q 1125 2728 920 2526 
Q 716 2325 681 1966 
z
" transform="scale(0.015625)"/>
       <path id="TimesNewRomanPSMT-70" d="M -6 2578 
L 875 2934 
L 994 2934 
L 994 2266 
Q 1216 2644 1439 2795 
Q 1663 2947 1909 2947 
Q 2341 2947 2628 2609 
Q 2981 2197 2981 1534 
Q 2981 794 2556 309 
Q 2206 -88 1675 -88 
Q 1444 -88 1275 -22 
Q 1150 25 994 166 
L 994 -706 
Q 994 -1000 1030 -1079 
Q 1066 -1159 1155 -1206 
Q 1244 -1253 1478 -1253 
L 1478 -1369 
L -22 -1369 
L -22 -1253 
L 56 -1253 
Q 228 -1256 350 -1188 
Q 409 -1153 442 -1076 
Q 475 -1000 475 -688 
L 475 2019 
Q 475 2297 450 2372 
Q 425 2447 370 2484 
Q 316 2522 222 2522 
Q 147 2522 31 2478 
L -6 2578 
z
M 994 2081 
L 994 1013 
Q 994 666 1022 556 
Q 1066 375 1236 237 
Q 1406 100 1666 100 
Q 1978 100 2172 344 
Q 2425 663 2425 1241 
Q 2425 1897 2138 2250 
Q 1938 2494 1663 2494 
Q 1513 2494 1366 2419 
Q 1253 2363 994 2081 
z
" transform="scale(0.015625)"/>
       <path id="TimesNewRomanPSMT-6f" d="M 1600 2947 
Q 2250 2947 2644 2453 
Q 2978 2031 2978 1484 
Q 2978 1100 2793 706 
Q 2609 313 2286 112 
Q 1963 -88 1566 -88 
Q 919 -88 538 428 
Q 216 863 216 1403 
Q 216 1797 411 2186 
Q 606 2575 925 2761 
Q 1244 2947 1600 2947 
z
M 1503 2744 
Q 1338 2744 1170 2645 
Q 1003 2547 900 2300 
Q 797 2053 797 1666 
Q 797 1041 1045 587 
Q 1294 134 1700 134 
Q 2003 134 2200 384 
Q 2397 634 2397 1244 
Q 2397 2006 2069 2444 
Q 1847 2744 1503 2744 
z
" transform="scale(0.015625)"/>
       <path id="TimesNewRomanPSMT-63" d="M 2631 1088 
Q 2516 522 2178 217 
Q 1841 -88 1431 -88 
Q 944 -88 581 321 
Q 219 731 219 1428 
Q 219 2103 620 2525 
Q 1022 2947 1584 2947 
Q 2006 2947 2278 2723 
Q 2550 2500 2550 2259 
Q 2550 2141 2473 2067 
Q 2397 1994 2259 1994 
Q 2075 1994 1981 2113 
Q 1928 2178 1911 2362 
Q 1894 2547 1784 2644 
Q 1675 2738 1481 2738 
Q 1169 2738 978 2506 
Q 725 2200 725 1697 
Q 725 1184 976 792 
Q 1228 400 1656 400 
Q 1963 400 2206 609 
Q 2378 753 2541 1131 
L 2631 1088 
z
" transform="scale(0.015625)"/>
       <path id="TimesNewRomanPSMT-68" d="M 1041 4444 
L 1041 2350 
Q 1388 2731 1591 2839 
Q 1794 2947 1997 2947 
Q 2241 2947 2416 2812 
Q 2591 2678 2675 2391 
Q 2734 2191 2734 1659 
L 2734 647 
Q 2734 375 2778 275 
Q 2809 200 2884 156 
Q 2959 113 3159 113 
L 3159 0 
L 1753 0 
L 1753 113 
L 1819 113 
Q 2019 113 2097 173 
Q 2175 234 2206 353 
Q 2216 403 2216 647 
L 2216 1659 
Q 2216 2128 2167 2275 
Q 2119 2422 2012 2495 
Q 1906 2569 1756 2569 
Q 1603 2569 1437 2487 
Q 1272 2406 1041 2159 
L 1041 647 
Q 1041 353 1073 281 
Q 1106 209 1195 161 
Q 1284 113 1503 113 
L 1503 0 
L 84 0 
L 84 113 
Q 275 113 384 172 
Q 447 203 484 290 
Q 522 378 522 647 
L 522 3238 
Q 522 3728 498 3840 
Q 475 3953 426 3993 
Q 378 4034 297 4034 
Q 231 4034 84 3984 
L 41 4094 
L 897 4444 
L 1041 4444 
z
" transform="scale(0.015625)"/>
      </defs>
      <use xlink:href="#TimesNewRomanPSMT-65"/>
      <use xlink:href="#TimesNewRomanPSMT-70" x="44.384766"/>
      <use xlink:href="#TimesNewRomanPSMT-6f" x="94.384766"/>
      <use xlink:href="#TimesNewRomanPSMT-63" x="144.384766"/>
      <use xlink:href="#TimesNewRomanPSMT-68" x="188.769531"/>
     </g>
    </g>
   </g>
   <g id="matplotlib.axis_2">
    <g id="ytick_1">
     <g id="line2d_6">
      <defs>
       <path id="macdcf4c54c" d="M 0 0 
L -3.5 0 
" style="stroke: #000000; stroke-width: 0.8"/>
      </defs>
      <g>
       <use xlink:href="#macdcf4c54c" x="57.6" y="299.183657" style="stroke: #000000; stroke-width: 0.8"/>
      </g>
     </g>
     <g id="text_7">
      <!-- 0.0 -->
      <g transform="translate(25.6 306.127407) scale(0.2 -0.2)">
       <defs>
        <path id="TimesNewRomanPSMT-2e" d="M 800 606 
Q 947 606 1047 504 
Q 1147 403 1147 259 
Q 1147 116 1045 14 
Q 944 -88 800 -88 
Q 656 -88 554 14 
Q 453 116 453 259 
Q 453 406 554 506 
Q 656 606 800 606 
z
" transform="scale(0.015625)"/>
       </defs>
       <use xlink:href="#TimesNewRomanPSMT-30"/>
       <use xlink:href="#TimesNewRomanPSMT-2e" x="50"/>
       <use xlink:href="#TimesNewRomanPSMT-30" x="75"/>
      </g>
     </g>
    </g>
    <g id="ytick_2">
     <g id="line2d_7">
      <g>
       <use xlink:href="#macdcf4c54c" x="57.6" y="249.911832" style="stroke: #000000; stroke-width: 0.8"/>
      </g>
     </g>
     <g id="text_8">
      <!-- 0.2 -->
      <g transform="translate(25.6 256.855582) scale(0.2 -0.2)">
       <use xlink:href="#TimesNewRomanPSMT-30"/>
       <use xlink:href="#TimesNewRomanPSMT-2e" x="50"/>
       <use xlink:href="#TimesNewRomanPSMT-32" x="75"/>
      </g>
     </g>
    </g>
    <g id="ytick_3">
     <g id="line2d_8">
      <g>
       <use xlink:href="#macdcf4c54c" x="57.6" y="200.640008" style="stroke: #000000; stroke-width: 0.8"/>
      </g>
     </g>
     <g id="text_9">
      <!-- 0.4 -->
      <g transform="translate(25.6 207.583758) scale(0.2 -0.2)">
       <defs>
        <path id="TimesNewRomanPSMT-34" d="M 2978 1563 
L 2978 1119 
L 2409 1119 
L 2409 0 
L 1894 0 
L 1894 1119 
L 100 1119 
L 100 1519 
L 2066 4325 
L 2409 4325 
L 2409 1563 
L 2978 1563 
z
M 1894 1563 
L 1894 3666 
L 406 1563 
L 1894 1563 
z
" transform="scale(0.015625)"/>
       </defs>
       <use xlink:href="#TimesNewRomanPSMT-30"/>
       <use xlink:href="#TimesNewRomanPSMT-2e" x="50"/>
       <use xlink:href="#TimesNewRomanPSMT-34" x="75"/>
      </g>
     </g>
    </g>
    <g id="ytick_4">
     <g id="line2d_9">
      <g>
       <use xlink:href="#macdcf4c54c" x="57.6" y="151.368183" style="stroke: #000000; stroke-width: 0.8"/>
      </g>
     </g>
     <g id="text_10">
      <!-- 0.6 -->
      <g transform="translate(25.6 158.311933) scale(0.2 -0.2)">
       <defs>
        <path id="TimesNewRomanPSMT-36" d="M 2869 4325 
L 2869 4209 
Q 2456 4169 2195 4045 
Q 1934 3922 1679 3669 
Q 1425 3416 1258 3105 
Q 1091 2794 978 2366 
Q 1428 2675 1881 2675 
Q 2316 2675 2634 2325 
Q 2953 1975 2953 1425 
Q 2953 894 2631 456 
Q 2244 -75 1606 -75 
Q 1172 -75 869 213 
Q 275 772 275 1663 
Q 275 2231 503 2743 
Q 731 3256 1154 3653 
Q 1578 4050 1965 4187 
Q 2353 4325 2688 4325 
L 2869 4325 
z
M 925 2138 
Q 869 1716 869 1456 
Q 869 1156 980 804 
Q 1091 453 1309 247 
Q 1469 100 1697 100 
Q 1969 100 2183 356 
Q 2397 613 2397 1088 
Q 2397 1622 2184 2012 
Q 1972 2403 1581 2403 
Q 1463 2403 1327 2353 
Q 1191 2303 925 2138 
z
" transform="scale(0.015625)"/>
       </defs>
       <use xlink:href="#TimesNewRomanPSMT-30"/>
       <use xlink:href="#TimesNewRomanPSMT-2e" x="50"/>
       <use xlink:href="#TimesNewRomanPSMT-36" x="75"/>
      </g>
     </g>
    </g>
    <g id="ytick_5">
     <g id="line2d_10">
      <g>
       <use xlink:href="#macdcf4c54c" x="57.6" y="102.096359" style="stroke: #000000; stroke-width: 0.8"/>
      </g>
     </g>
     <g id="text_11">
      <!-- 0.8 -->
      <g transform="translate(25.6 109.040109) scale(0.2 -0.2)">
       <defs>
        <path id="TimesNewRomanPSMT-38" d="M 1228 2134 
Q 725 2547 579 2797 
Q 434 3047 434 3316 
Q 434 3728 753 4026 
Q 1072 4325 1600 4325 
Q 2113 4325 2425 4047 
Q 2738 3769 2738 3413 
Q 2738 3175 2569 2928 
Q 2400 2681 1866 2347 
Q 2416 1922 2594 1678 
Q 2831 1359 2831 1006 
Q 2831 559 2490 242 
Q 2150 -75 1597 -75 
Q 994 -75 656 303 
Q 388 606 388 966 
Q 388 1247 577 1523 
Q 766 1800 1228 2134 
z
M 1719 2469 
Q 2094 2806 2194 3001 
Q 2294 3197 2294 3444 
Q 2294 3772 2109 3958 
Q 1925 4144 1606 4144 
Q 1288 4144 1088 3959 
Q 888 3775 888 3528 
Q 888 3366 970 3203 
Q 1053 3041 1206 2894 
L 1719 2469 
z
M 1375 2016 
Q 1116 1797 991 1539 
Q 866 1281 866 981 
Q 866 578 1086 336 
Q 1306 94 1647 94 
Q 1984 94 2187 284 
Q 2391 475 2391 747 
Q 2391 972 2272 1150 
Q 2050 1481 1375 2016 
z
" transform="scale(0.015625)"/>
       </defs>
       <use xlink:href="#TimesNewRomanPSMT-30"/>
       <use xlink:href="#TimesNewRomanPSMT-2e" x="50"/>
       <use xlink:href="#TimesNewRomanPSMT-38" x="75"/>
      </g>
     </g>
    </g>
    <g id="ytick_6">
     <g id="line2d_11">
      <g>
       <use xlink:href="#macdcf4c54c" x="57.6" y="52.824534" style="stroke: #000000; stroke-width: 0.8"/>
      </g>
     </g>
     <g id="text_12">
      <!-- 1.0 -->
      <g transform="translate(25.6 59.768284) scale(0.2 -0.2)">
       <use xlink:href="#TimesNewRomanPSMT-31"/>
       <use xlink:href="#TimesNewRomanPSMT-2e" x="50"/>
       <use xlink:href="#TimesNewRomanPSMT-30" x="75"/>
      </g>
     </g>
    </g>
    <g id="text_13">
     <!-- loss -->
     <g transform="translate(17.321875 190.0905) rotate(-90) scale(0.2 -0.2)">
      <defs>
       <path id="TimesNewRomanPSMT-6c" d="M 1184 4444 
L 1184 647 
Q 1184 378 1223 290 
Q 1263 203 1344 158 
Q 1425 113 1647 113 
L 1647 0 
L 244 0 
L 244 113 
Q 441 113 512 153 
Q 584 194 625 287 
Q 666 381 666 647 
L 666 3247 
Q 666 3731 644 3842 
Q 622 3953 573 3993 
Q 525 4034 450 4034 
Q 369 4034 244 3984 
L 191 4094 
L 1044 4444 
L 1184 4444 
z
" transform="scale(0.015625)"/>
       <path id="TimesNewRomanPSMT-73" d="M 2050 2947 
L 2050 1972 
L 1947 1972 
Q 1828 2431 1642 2597 
Q 1456 2763 1169 2763 
Q 950 2763 815 2647 
Q 681 2531 681 2391 
Q 681 2216 781 2091 
Q 878 1963 1175 1819 
L 1631 1597 
Q 2266 1288 2266 781 
Q 2266 391 1970 151 
Q 1675 -88 1309 -88 
Q 1047 -88 709 6 
Q 606 38 541 38 
Q 469 38 428 -44 
L 325 -44 
L 325 978 
L 428 978 
Q 516 541 762 319 
Q 1009 97 1316 97 
Q 1531 97 1667 223 
Q 1803 350 1803 528 
Q 1803 744 1651 891 
Q 1500 1038 1047 1263 
Q 594 1488 453 1669 
Q 313 1847 313 2119 
Q 313 2472 555 2709 
Q 797 2947 1181 2947 
Q 1350 2947 1591 2875 
Q 1750 2828 1803 2828 
Q 1853 2828 1881 2850 
Q 1909 2872 1947 2947 
L 2050 2947 
z
" transform="scale(0.015625)"/>
      </defs>
      <use xlink:href="#TimesNewRomanPSMT-6c"/>
      <use xlink:href="#TimesNewRomanPSMT-6f" x="27.783203"/>
      <use xlink:href="#TimesNewRomanPSMT-73" x="77.783203"/>
      <use xlink:href="#TimesNewRomanPSMT-73" x="116.699219"/>
     </g>
    </g>
   </g>
   <g id="line2d_12">
    <path d="M 73.832727 54.384671 
L 75.464157 65.742724 
L 77.095587 75.350341 
L 78.727017 76.845776 
L 80.358447 81.666654 
L 81.989877 92.99091 
L 83.621307 91.075955 
L 85.252736 94.2866 
L 86.884166 100.580779 
L 90.147026 117.448304 
L 91.778456 121.748828 
L 93.409886 113.855494 
L 95.041316 130.844942 
L 96.672746 138.983338 
L 98.304175 131.681336 
L 99.935605 149.335403 
L 101.567035 149.001831 
L 103.198465 151.492562 
L 104.829895 157.441313 
L 106.461325 168.53155 
L 108.092755 165.406699 
L 109.724185 172.238757 
L 111.355614 174.692096 
L 112.987044 180.36914 
L 114.618474 187.211334 
L 116.249904 190.117187 
L 117.881334 198.193442 
L 119.512764 199.52939 
L 121.144194 208.063674 
L 122.775624 209.695101 
L 124.407053 211.978624 
L 126.038483 209.230173 
L 127.669913 216.733359 
L 129.301343 211.979136 
L 130.932773 219.995709 
L 132.564203 222.655597 
L 134.195633 230.874039 
L 135.827063 232.947694 
L 137.458492 240.262606 
L 139.089922 244.932511 
L 140.721352 246.581599 
L 142.352782 250.632648 
L 143.984212 244.000949 
L 147.247072 249.279984 
L 148.878502 255.495242 
L 150.509931 253.290609 
L 152.141361 252.457709 
L 153.772791 255.171715 
L 155.404221 259.655701 
L 157.035651 260.5919 
L 158.667081 264.706785 
L 160.298511 268.496015 
L 161.929941 270.080614 
L 165.1928 268.028121 
L 166.82423 271.0379 
L 168.45566 270.443497 
L 170.08709 270.350667 
L 173.34995 273.433826 
L 174.98138 272.394717 
L 176.61281 271.879889 
L 178.244239 271.187494 
L 179.875669 269.173992 
L 181.507099 272.044477 
L 183.138529 264.793455 
L 184.769959 273.11839 
L 186.401389 274.772515 
L 188.032819 277.20438 
L 189.664249 280.382434 
L 191.295678 280.791265 
L 192.927108 281.549505 
L 194.558538 279.977218 
L 197.821398 283.217093 
L 199.452828 283.290275 
L 201.084258 283.661851 
L 202.715688 283.077073 
L 204.347117 284.164112 
L 205.978547 284.742624 
L 207.609977 286.246261 
L 209.241407 287.507766 
L 210.872837 287.355143 
L 212.504267 286.824379 
L 214.135697 286.138551 
L 215.767127 284.260144 
L 217.398556 282.8537 
L 219.029986 279.961698 
L 220.661416 277.641013 
L 222.292846 269.798225 
L 223.924276 277.921094 
L 225.555706 283.481691 
L 227.187136 287.203739 
L 228.818566 288.874478 
L 230.449995 289.075815 
L 232.081425 289.644382 
L 235.344285 289.556227 
L 236.975715 289.686429 
L 238.607145 288.477746 
L 241.870005 287.528831 
L 243.501434 287.572105 
L 245.132864 288.236101 
L 246.764294 286.87085 
L 248.395724 288.058038 
L 250.027154 287.336555 
L 251.658584 288.038338 
L 253.290014 288.467735 
L 254.921444 288.187872 
L 256.552873 288.229515 
L 258.184303 289.730424 
L 261.447163 290.822694 
L 263.078593 290.588947 
L 264.710023 289.776163 
L 266.341453 289.475683 
L 267.972883 288.514822 
L 269.604312 289.369458 
L 271.235742 289.405563 
L 272.867172 288.951368 
L 274.498602 287.144342 
L 276.130032 288.260327 
L 277.761462 287.854069 
L 279.392892 289.660354 
L 281.024322 290.458709 
L 282.655751 291.468052 
L 284.287181 290.283165 
L 285.918611 291.063432 
L 287.550041 288.220448 
L 289.181471 290.177897 
L 290.812901 290.879164 
L 292.444331 291.780686 
L 294.075761 292.363273 
L 295.70719 292.704602 
L 297.33862 292.361785 
L 298.97005 292.582506 
L 300.60148 292.587133 
L 302.23291 292.998099 
L 303.86434 292.098393 
L 305.49577 292.283841 
L 308.75863 290.563662 
L 310.390059 290.308082 
L 312.021489 290.343299 
L 313.652919 288.942759 
L 315.284349 288.391788 
L 316.915779 288.475018 
L 318.547209 291.154728 
L 320.178639 292.312281 
L 323.441498 293.590146 
L 325.072928 293.565496 
L 326.704358 293.716388 
L 328.335788 293.554552 
L 331.598648 293.599254 
L 334.861508 293.400577 
L 336.492937 293.825724 
L 338.124367 294.100686 
L 339.755797 293.236188 
L 341.387227 293.049117 
L 343.018657 292.371609 
L 344.650087 291.308496 
L 346.281517 289.207678 
L 347.912947 289.456345 
L 349.544376 287.27947 
L 351.175806 291.564307 
L 352.807236 291.769684 
L 354.438666 293.943212 
L 356.070096 294.115348 
L 357.701526 294.958432 
L 359.332956 295.488 
L 360.964386 295.295029 
L 362.595815 294.925493 
L 365.858675 294.807207 
L 369.121535 294.978793 
L 370.752965 294.991493 
L 372.384395 294.447393 
L 374.015825 294.882761 
L 378.910114 294.396336 
L 380.541544 293.948809 
L 382.172974 292.786128 
L 383.804404 292.185011 
L 385.435834 291.112762 
L 387.067264 290.278278 
L 390.330123 289.543136 
L 391.961553 290.941062 
L 396.855843 293.178715 
L 398.487273 293.48151 
L 398.487273 293.48151 
" clip-path="url(#p75ef3bfefd)" style="fill: none; stroke: #1f77b4; stroke-width: 1.5; stroke-linecap: square"/>
   </g>
   <g id="line2d_13">
    <path d="M 73.832727 53.568 
L 75.464157 55.770851 
L 77.095587 70.194653 
L 78.727017 76.321454 
L 80.358447 81.238875 
L 81.989877 84.820438 
L 83.621307 86.155102 
L 85.252736 94.482883 
L 86.884166 95.120563 
L 88.515596 100.66788 
L 90.147026 108.223373 
L 91.778456 111.864107 
L 93.409886 109.138841 
L 95.041316 114.185338 
L 96.672746 122.969596 
L 98.304175 124.737485 
L 99.935605 133.425118 
L 101.567035 138.903225 
L 103.198465 143.196855 
L 104.829895 144.397605 
L 106.461325 147.337988 
L 108.092755 139.011686 
L 109.724185 151.816505 
L 111.355614 150.545277 
L 112.987044 158.157065 
L 114.618474 157.975162 
L 116.249904 170.691766 
L 117.881334 167.852213 
L 119.512764 168.78559 
L 121.144194 180.19923 
L 122.775624 174.240444 
L 124.407053 184.485508 
L 126.038483 186.171084 
L 127.669913 193.033146 
L 129.301343 195.31631 
L 130.932773 200.693605 
L 132.564203 194.047652 
L 134.195633 198.043427 
L 135.827063 204.289622 
L 137.458492 204.809494 
L 139.089922 212.178269 
L 140.721352 208.231658 
L 142.352782 202.750405 
L 143.984212 200.605925 
L 145.615642 211.59733 
L 147.247072 224.608699 
L 150.509931 228.771556 
L 152.141361 231.838042 
L 155.404221 231.372826 
L 157.035651 232.200603 
L 158.667081 231.530691 
L 160.298511 230.377897 
L 161.929941 235.127861 
L 163.56137 236.531166 
L 165.1928 236.909667 
L 166.82423 236.153367 
L 168.45566 237.284493 
L 170.08709 240.535391 
L 171.71852 246.861986 
L 173.34995 247.905387 
L 174.98138 251.827644 
L 176.61281 253.607223 
L 178.244239 251.190668 
L 179.875669 251.859158 
L 181.507099 251.4411 
L 183.138529 252.589795 
L 184.769959 257.559024 
L 186.401389 257.372126 
L 189.664249 255.441093 
L 191.295678 260.410056 
L 192.927108 261.16696 
L 194.558538 262.935158 
L 196.189968 263.220057 
L 197.821398 259.634705 
L 201.084258 262.482417 
L 202.715688 261.149931 
L 204.347117 259.115092 
L 205.978547 260.5311 
L 207.609977 264.23682 
L 209.241407 265.73509 
L 210.872837 263.779057 
L 212.504267 264.102068 
L 214.135697 267.598022 
L 215.767127 267.848391 
L 217.398556 270.94058 
L 219.029986 271.421881 
L 220.661416 272.294992 
L 222.292846 272.315841 
L 223.924276 272.063643 
L 225.555706 272.925041 
L 227.187136 271.142284 
L 228.818566 272.341835 
L 230.449995 270.543105 
L 232.081425 268.397055 
L 233.712855 263.882894 
L 235.344285 263.179375 
L 236.975715 269.754338 
L 238.607145 272.974925 
L 240.238575 274.452634 
L 241.870005 277.070431 
L 243.501434 276.044764 
L 245.132864 275.165806 
L 246.764294 275.004076 
L 248.395724 277.384085 
L 250.027154 277.308286 
L 251.658584 278.175828 
L 253.290014 278.795286 
L 254.921444 278.121213 
L 256.552873 278.409038 
L 258.184303 278.245646 
L 259.815733 278.823801 
L 261.447163 278.755502 
L 263.078593 280.511132 
L 264.710023 280.205349 
L 266.341453 279.479664 
L 267.972883 277.432859 
L 272.867172 277.772766 
L 276.130032 276.411937 
L 277.761462 275.483324 
L 279.392892 276.960663 
L 281.024322 277.402268 
L 282.655751 280.340054 
L 284.287181 280.178661 
L 285.918611 282.153708 
L 287.550041 281.778557 
L 289.181471 281.865942 
L 290.812901 282.601913 
L 292.444331 283.746581 
L 294.075761 284.264773 
L 295.70719 282.851937 
L 297.33862 281.616239 
L 298.97005 281.775495 
L 300.60148 283.054006 
L 302.23291 283.174407 
L 303.86434 282.623722 
L 305.49577 283.40152 
L 307.1272 283.30691 
L 308.75863 284.054533 
L 310.390059 284.104281 
L 312.021489 284.626776 
L 313.652919 284.685446 
L 316.915779 284.462062 
L 318.547209 284.85294 
L 320.178639 283.940183 
L 321.810069 282.466895 
L 323.441498 283.465229 
L 325.072928 283.581661 
L 326.704358 285.287179 
L 328.335788 285.561462 
L 329.967218 284.495994 
L 331.598648 285.411566 
L 333.230078 285.756348 
L 334.861508 285.465702 
L 336.492937 284.604085 
L 338.124367 285.316755 
L 339.755797 284.222229 
L 341.387227 285.674247 
L 344.650087 282.523205 
L 347.912947 284.740018 
L 349.544376 283.502937 
L 351.175806 285.857708 
L 352.807236 286.383159 
L 354.438666 286.476177 
L 356.070096 287.368305 
L 357.701526 287.599544 
L 359.332956 286.559113 
L 360.964386 286.763446 
L 364.227245 286.601784 
L 365.858675 286.930807 
L 367.490105 288.116908 
L 369.121535 286.495191 
L 370.752965 284.59565 
L 372.384395 278.030921 
L 374.015825 280.307724 
L 377.278684 285.517724 
L 378.910114 284.79725 
L 380.541544 286.698061 
L 382.172974 287.126041 
L 383.804404 288.097162 
L 385.435834 289.237985 
L 387.067264 289.32174 
L 388.698693 288.980353 
L 390.330123 289.461384 
L 391.961553 289.610543 
L 393.592983 289.47014 
L 395.224413 290.17906 
L 396.855843 289.790248 
L 398.487273 290.109429 
L 398.487273 290.109429 
" clip-path="url(#p75ef3bfefd)" style="fill: none; stroke: #ff7f0e; stroke-width: 1.5; stroke-linecap: square"/>
   </g>
   <g id="patch_3">
    <path d="M 57.6 307.584 
L 57.6 41.472 
" style="fill: none; stroke: #000000; stroke-width: 0.8; stroke-linejoin: miter; stroke-linecap: square"/>
   </g>
   <g id="patch_4">
    <path d="M 414.72 307.584 
L 414.72 41.472 
" style="fill: none; stroke: #000000; stroke-width: 0.8; stroke-linejoin: miter; stroke-linecap: square"/>
   </g>
   <g id="patch_5">
    <path d="M 57.6 307.584 
L 414.72 307.584 
" style="fill: none; stroke: #000000; stroke-width: 0.8; stroke-linejoin: miter; stroke-linecap: square"/>
   </g>
   <g id="patch_6">
    <path d="M 57.6 41.472 
L 414.72 41.472 
" style="fill: none; stroke: #000000; stroke-width: 0.8; stroke-linejoin: miter; stroke-linecap: square"/>
   </g>
   <g id="text_14">
    <!-- Train loss -->
    <g transform="translate(188.919375 35.472) scale(0.24 -0.24)">
     <defs>
      <path id="TimesNewRomanPSMT-54" d="M 3703 4238 
L 3750 3244 
L 3631 3244 
Q 3597 3506 3538 3619 
Q 3441 3800 3280 3886 
Q 3119 3972 2856 3972 
L 2259 3972 
L 2259 734 
Q 2259 344 2344 247 
Q 2463 116 2709 116 
L 2856 116 
L 2856 0 
L 1059 0 
L 1059 116 
L 1209 116 
Q 1478 116 1591 278 
Q 1659 378 1659 734 
L 1659 3972 
L 1150 3972 
Q 853 3972 728 3928 
Q 566 3869 450 3700 
Q 334 3531 313 3244 
L 194 3244 
L 244 4238 
L 3703 4238 
z
" transform="scale(0.015625)"/>
      <path id="TimesNewRomanPSMT-72" d="M 1038 2947 
L 1038 2303 
Q 1397 2947 1775 2947 
Q 1947 2947 2059 2842 
Q 2172 2738 2172 2600 
Q 2172 2478 2090 2393 
Q 2009 2309 1897 2309 
Q 1788 2309 1652 2417 
Q 1516 2525 1450 2525 
Q 1394 2525 1328 2463 
Q 1188 2334 1038 2041 
L 1038 669 
Q 1038 431 1097 309 
Q 1138 225 1241 169 
Q 1344 113 1538 113 
L 1538 0 
L 72 0 
L 72 113 
Q 291 113 397 181 
Q 475 231 506 341 
Q 522 394 522 644 
L 522 1753 
Q 522 2253 501 2348 
Q 481 2444 426 2487 
Q 372 2531 291 2531 
Q 194 2531 72 2484 
L 41 2597 
L 906 2947 
L 1038 2947 
z
" transform="scale(0.015625)"/>
      <path id="TimesNewRomanPSMT-61" d="M 1822 413 
Q 1381 72 1269 19 
Q 1100 -59 909 -59 
Q 613 -59 420 144 
Q 228 347 228 678 
Q 228 888 322 1041 
Q 450 1253 767 1440 
Q 1084 1628 1822 1897 
L 1822 2009 
Q 1822 2438 1686 2597 
Q 1550 2756 1291 2756 
Q 1094 2756 978 2650 
Q 859 2544 859 2406 
L 866 2225 
Q 866 2081 792 2003 
Q 719 1925 600 1925 
Q 484 1925 411 2006 
Q 338 2088 338 2228 
Q 338 2497 613 2722 
Q 888 2947 1384 2947 
Q 1766 2947 2009 2819 
Q 2194 2722 2281 2516 
Q 2338 2381 2338 1966 
L 2338 994 
Q 2338 584 2353 492 
Q 2369 400 2405 369 
Q 2441 338 2488 338 
Q 2538 338 2575 359 
Q 2641 400 2828 588 
L 2828 413 
Q 2478 -56 2159 -56 
Q 2006 -56 1915 50 
Q 1825 156 1822 413 
z
M 1822 616 
L 1822 1706 
Q 1350 1519 1213 1441 
Q 966 1303 859 1153 
Q 753 1003 753 825 
Q 753 600 887 451 
Q 1022 303 1197 303 
Q 1434 303 1822 616 
z
" transform="scale(0.015625)"/>
      <path id="TimesNewRomanPSMT-69" d="M 928 4444 
Q 1059 4444 1151 4351 
Q 1244 4259 1244 4128 
Q 1244 3997 1151 3903 
Q 1059 3809 928 3809 
Q 797 3809 703 3903 
Q 609 3997 609 4128 
Q 609 4259 701 4351 
Q 794 4444 928 4444 
z
M 1188 2947 
L 1188 647 
Q 1188 378 1227 289 
Q 1266 200 1342 156 
Q 1419 113 1622 113 
L 1622 0 
L 231 0 
L 231 113 
Q 441 113 512 153 
Q 584 194 626 287 
Q 669 381 669 647 
L 669 1750 
Q 669 2216 641 2353 
Q 619 2453 572 2492 
Q 525 2531 444 2531 
Q 356 2531 231 2484 
L 188 2597 
L 1050 2947 
L 1188 2947 
z
" transform="scale(0.015625)"/>
      <path id="TimesNewRomanPSMT-6e" d="M 1034 2341 
Q 1538 2947 1994 2947 
Q 2228 2947 2397 2830 
Q 2566 2713 2666 2444 
Q 2734 2256 2734 1869 
L 2734 647 
Q 2734 375 2778 278 
Q 2813 200 2889 156 
Q 2966 113 3172 113 
L 3172 0 
L 1756 0 
L 1756 113 
L 1816 113 
Q 2016 113 2095 173 
Q 2175 234 2206 353 
Q 2219 400 2219 647 
L 2219 1819 
Q 2219 2209 2117 2386 
Q 2016 2563 1775 2563 
Q 1403 2563 1034 2156 
L 1034 647 
Q 1034 356 1069 288 
Q 1113 197 1189 155 
Q 1266 113 1500 113 
L 1500 0 
L 84 0 
L 84 113 
L 147 113 
Q 366 113 442 223 
Q 519 334 519 647 
L 519 1709 
Q 519 2225 495 2337 
Q 472 2450 423 2490 
Q 375 2531 294 2531 
Q 206 2531 84 2484 
L 38 2597 
L 900 2947 
L 1034 2947 
L 1034 2341 
z
" transform="scale(0.015625)"/>
      <path id="TimesNewRomanPSMT-20" transform="scale(0.015625)"/>
     </defs>
     <use xlink:href="#TimesNewRomanPSMT-54"/>
     <use xlink:href="#TimesNewRomanPSMT-72" x="57.583984"/>
     <use xlink:href="#TimesNewRomanPSMT-61" x="90.884766"/>
     <use xlink:href="#TimesNewRomanPSMT-69" x="135.269531"/>
     <use xlink:href="#TimesNewRomanPSMT-6e" x="163.052734"/>
     <use xlink:href="#TimesNewRomanPSMT-20" x="213.052734"/>
     <use xlink:href="#TimesNewRomanPSMT-6c" x="238.052734"/>
     <use xlink:href="#TimesNewRomanPSMT-6f" x="265.835938"/>
     <use xlink:href="#TimesNewRomanPSMT-73" x="315.835938"/>
     <use xlink:href="#TimesNewRomanPSMT-73" x="354.751953"/>
    </g>
   </g>
   <g id="legend_1">
    <g id="patch_7">
     <path d="M 272.604375 85.00575 
L 406.32 85.00575 
Q 408.72 85.00575 408.72 82.60575 
L 408.72 49.872 
Q 408.72 47.472 406.32 47.472 
L 272.604375 47.472 
Q 270.204375 47.472 270.204375 49.872 
L 270.204375 82.60575 
Q 270.204375 85.00575 272.604375 85.00575 
z
" style="fill: #ffffff; opacity: 0.8; stroke: #cccccc; stroke-linejoin: miter"/>
    </g>
    <g id="line2d_14">
     <path d="M 275.004375 56.472 
L 287.004375 56.472 
L 299.004375 56.472 
" style="fill: none; stroke: #1f77b4; stroke-width: 1.5; stroke-linecap: square"/>
    </g>
    <g id="text_15">
     <!-- Transformer-Bilstm -->
     <g transform="translate(308.604375 60.672) scale(0.12 -0.12)">
      <defs>
       <path id="TimesNewRomanPSMT-66" d="M 1319 2638 
L 1319 756 
Q 1319 356 1406 250 
Q 1522 113 1716 113 
L 1975 113 
L 1975 0 
L 266 0 
L 266 113 
L 394 113 
Q 519 113 622 175 
Q 725 238 764 344 
Q 803 450 803 756 
L 803 2638 
L 247 2638 
L 247 2863 
L 803 2863 
L 803 3050 
Q 803 3478 940 3775 
Q 1078 4072 1361 4255 
Q 1644 4438 1997 4438 
Q 2325 4438 2600 4225 
Q 2781 4084 2781 3909 
Q 2781 3816 2700 3733 
Q 2619 3650 2525 3650 
Q 2453 3650 2373 3701 
Q 2294 3753 2178 3923 
Q 2063 4094 1966 4153 
Q 1869 4213 1750 4213 
Q 1606 4213 1506 4136 
Q 1406 4059 1362 3898 
Q 1319 3738 1319 3069 
L 1319 2863 
L 2056 2863 
L 2056 2638 
L 1319 2638 
z
" transform="scale(0.015625)"/>
       <path id="TimesNewRomanPSMT-6d" d="M 1050 2338 
Q 1363 2650 1419 2697 
Q 1559 2816 1721 2881 
Q 1884 2947 2044 2947 
Q 2313 2947 2506 2790 
Q 2700 2634 2766 2338 
Q 3088 2713 3309 2830 
Q 3531 2947 3766 2947 
Q 3994 2947 4170 2830 
Q 4347 2713 4450 2447 
Q 4519 2266 4519 1878 
L 4519 647 
Q 4519 378 4559 278 
Q 4591 209 4675 161 
Q 4759 113 4950 113 
L 4950 0 
L 3538 0 
L 3538 113 
L 3597 113 
Q 3781 113 3884 184 
Q 3956 234 3988 344 
Q 4000 397 4000 647 
L 4000 1878 
Q 4000 2228 3916 2372 
Q 3794 2572 3525 2572 
Q 3359 2572 3192 2489 
Q 3025 2406 2788 2181 
L 2781 2147 
L 2788 2013 
L 2788 647 
Q 2788 353 2820 281 
Q 2853 209 2943 161 
Q 3034 113 3253 113 
L 3253 0 
L 1806 0 
L 1806 113 
Q 2044 113 2133 169 
Q 2222 225 2256 338 
Q 2272 391 2272 647 
L 2272 1878 
Q 2272 2228 2169 2381 
Q 2031 2581 1784 2581 
Q 1616 2581 1450 2491 
Q 1191 2353 1050 2181 
L 1050 647 
Q 1050 366 1089 281 
Q 1128 197 1204 155 
Q 1281 113 1516 113 
L 1516 0 
L 100 0 
L 100 113 
Q 297 113 375 155 
Q 453 197 493 289 
Q 534 381 534 647 
L 534 1741 
Q 534 2213 506 2350 
Q 484 2453 437 2492 
Q 391 2531 309 2531 
Q 222 2531 100 2484 
L 53 2597 
L 916 2947 
L 1050 2947 
L 1050 2338 
z
" transform="scale(0.015625)"/>
       <path id="TimesNewRomanPSMT-2d" d="M 259 1672 
L 1875 1672 
L 1875 1200 
L 259 1200 
L 259 1672 
z
" transform="scale(0.015625)"/>
       <path id="TimesNewRomanPSMT-42" d="M 2956 2163 
Q 3397 2069 3616 1863 
Q 3919 1575 3919 1159 
Q 3919 844 3719 555 
Q 3519 266 3170 133 
Q 2822 0 2106 0 
L 106 0 
L 106 116 
L 266 116 
Q 531 116 647 284 
Q 719 394 719 750 
L 719 3488 
Q 719 3881 628 3984 
Q 506 4122 266 4122 
L 106 4122 
L 106 4238 
L 1938 4238 
Q 2450 4238 2759 4163 
Q 3228 4050 3475 3764 
Q 3722 3478 3722 3106 
Q 3722 2788 3528 2536 
Q 3334 2284 2956 2163 
z
M 1319 2331 
Q 1434 2309 1582 2298 
Q 1731 2288 1909 2288 
Q 2366 2288 2595 2386 
Q 2825 2484 2947 2687 
Q 3069 2891 3069 3131 
Q 3069 3503 2766 3765 
Q 2463 4028 1881 4028 
Q 1569 4028 1319 3959 
L 1319 2331 
z
M 1319 306 
Q 1681 222 2034 222 
Q 2600 222 2897 476 
Q 3194 731 3194 1106 
Q 3194 1353 3059 1581 
Q 2925 1809 2622 1940 
Q 2319 2072 1872 2072 
Q 1678 2072 1540 2065 
Q 1403 2059 1319 2044 
L 1319 306 
z
" transform="scale(0.015625)"/>
       <path id="TimesNewRomanPSMT-74" d="M 1031 3803 
L 1031 2863 
L 1700 2863 
L 1700 2644 
L 1031 2644 
L 1031 788 
Q 1031 509 1111 412 
Q 1191 316 1316 316 
Q 1419 316 1516 380 
Q 1613 444 1666 569 
L 1788 569 
Q 1678 263 1478 108 
Q 1278 -47 1066 -47 
Q 922 -47 784 33 
Q 647 113 581 261 
Q 516 409 516 719 
L 516 2644 
L 63 2644 
L 63 2747 
Q 234 2816 414 2980 
Q 594 3144 734 3369 
Q 806 3488 934 3803 
L 1031 3803 
z
" transform="scale(0.015625)"/>
      </defs>
      <use xlink:href="#TimesNewRomanPSMT-54"/>
      <use xlink:href="#TimesNewRomanPSMT-72" x="57.583984"/>
      <use xlink:href="#TimesNewRomanPSMT-61" x="90.884766"/>
      <use xlink:href="#TimesNewRomanPSMT-6e" x="135.269531"/>
      <use xlink:href="#TimesNewRomanPSMT-73" x="185.269531"/>
      <use xlink:href="#TimesNewRomanPSMT-66" x="224.185547"/>
      <use xlink:href="#TimesNewRomanPSMT-6f" x="257.486328"/>
      <use xlink:href="#TimesNewRomanPSMT-72" x="307.486328"/>
      <use xlink:href="#TimesNewRomanPSMT-6d" x="340.787109"/>
      <use xlink:href="#TimesNewRomanPSMT-65" x="418.570312"/>
      <use xlink:href="#TimesNewRomanPSMT-72" x="462.955078"/>
      <use xlink:href="#TimesNewRomanPSMT-2d" x="494.255859"/>
      <use xlink:href="#TimesNewRomanPSMT-42" x="527.556641"/>
      <use xlink:href="#TimesNewRomanPSMT-69" x="594.255859"/>
      <use xlink:href="#TimesNewRomanPSMT-6c" x="622.039062"/>
      <use xlink:href="#TimesNewRomanPSMT-73" x="649.822266"/>
      <use xlink:href="#TimesNewRomanPSMT-74" x="688.738281"/>
      <use xlink:href="#TimesNewRomanPSMT-6d" x="716.521484"/>
     </g>
    </g>
    <g id="line2d_15">
     <path d="M 275.004375 73.438875 
L 287.004375 73.438875 
L 299.004375 73.438875 
" style="fill: none; stroke: #ff7f0e; stroke-width: 1.5; stroke-linecap: square"/>
    </g>
    <g id="text_16">
     <!-- Transformer-Lstm -->
     <g transform="translate(308.604375 77.638875) scale(0.12 -0.12)">
      <defs>
       <path id="TimesNewRomanPSMT-4c" d="M 3669 1172 
L 3772 1150 
L 3409 0 
L 128 0 
L 128 116 
L 288 116 
Q 556 116 672 291 
Q 738 391 738 753 
L 738 3488 
Q 738 3884 650 3984 
Q 528 4122 288 4122 
L 128 4122 
L 128 4238 
L 2047 4238 
L 2047 4122 
Q 1709 4125 1573 4059 
Q 1438 3994 1388 3894 
Q 1338 3794 1338 3416 
L 1338 753 
Q 1338 494 1388 397 
Q 1425 331 1503 300 
Q 1581 269 1991 269 
L 2300 269 
Q 2788 269 2984 341 
Q 3181 413 3343 595 
Q 3506 778 3669 1172 
z
" transform="scale(0.015625)"/>
      </defs>
      <use xlink:href="#TimesNewRomanPSMT-54"/>
      <use xlink:href="#TimesNewRomanPSMT-72" x="57.583984"/>
      <use xlink:href="#TimesNewRomanPSMT-61" x="90.884766"/>
      <use xlink:href="#TimesNewRomanPSMT-6e" x="135.269531"/>
      <use xlink:href="#TimesNewRomanPSMT-73" x="185.269531"/>
      <use xlink:href="#TimesNewRomanPSMT-66" x="224.185547"/>
      <use xlink:href="#TimesNewRomanPSMT-6f" x="257.486328"/>
      <use xlink:href="#TimesNewRomanPSMT-72" x="307.486328"/>
      <use xlink:href="#TimesNewRomanPSMT-6d" x="340.787109"/>
      <use xlink:href="#TimesNewRomanPSMT-65" x="418.570312"/>
      <use xlink:href="#TimesNewRomanPSMT-72" x="462.955078"/>
      <use xlink:href="#TimesNewRomanPSMT-2d" x="494.255859"/>
      <use xlink:href="#TimesNewRomanPSMT-4c" x="527.556641"/>
      <use xlink:href="#TimesNewRomanPSMT-73" x="588.640625"/>
      <use xlink:href="#TimesNewRomanPSMT-74" x="627.556641"/>
      <use xlink:href="#TimesNewRomanPSMT-6d" x="655.339844"/>
     </g>
    </g>
   </g>
  </g>
 </g>
 <defs>
  <clipPath id="p75ef3bfefd">
   <rect x="57.6" y="41.472" width="357.12" height="266.112"/>
  </clipPath>
 </defs>
</svg>
