<?xml version="1.0" encoding="utf-8" standalone="no"?>
<!DOCTYPE svg PUBLIC "-//W3C//DTD SVG 1.1//EN"
  "http://www.w3.org/Graphics/SVG/1.1/DTD/svg11.dtd">
<svg xmlns:xlink="http://www.w3.org/1999/xlink" width="460.8pt" height="345.6pt" viewBox="0 0 460.8 345.6" xmlns="http://www.w3.org/2000/svg" version="1.1">
 <metadata>
  <rdf:RDF xmlns:dc="http://purl.org/dc/elements/1.1/" xmlns:cc="http://creativecommons.org/ns#" xmlns:rdf="http://www.w3.org/1999/02/22-rdf-syntax-ns#">
   <cc:Work>
    <dc:type rdf:resource="http://purl.org/dc/dcmitype/StillImage"/>
    <dc:date>2023-04-10T21:55:08.240168</dc:date>
    <dc:format>image/svg+xml</dc:format>
    <dc:creator>
     <cc:Agent>
      <dc:title>Matplotlib v3.6.2, https://matplotlib.org/</dc:title>
     </cc:Agent>
    </dc:creator>
   </cc:Work>
  </rdf:RDF>
 </metadata>
 <defs>
  <style type="text/css">*{stroke-linejoin: round; stroke-linecap: butt}</style>
 </defs>
 <g id="figure_1">
  <g id="patch_1">
   <path d="M 0 345.6 
L 460.8 345.6 
L 460.8 0 
L 0 0 
z
" style="fill: #ffffff"/>
  </g>
  <g id="axes_1">
   <g id="patch_2">
    <path d="M 57.6 307.584 
L 414.72 307.584 
L 414.72 41.472 
L 57.6 41.472 
z
" style="fill: #ffffff"/>
   </g>
   <g id="matplotlib.axis_1">
    <g id="xtick_1">
     <g id="line2d_1">
      <defs>
       <path id="m3d510b0817" d="M 0 0 
L 0 3.5 
" style="stroke: #000000; stroke-width: 0.8"/>
      </defs>
      <g>
       <use xlink:href="#m3d510b0817" x="73.832727" y="307.584" style="stroke: #000000; stroke-width: 0.8"/>
      </g>
     </g>
     <g id="text_1">
      <!-- 0 -->
      <g transform="translate(68.832727 328.4715) scale(0.2 -0.2)">
       <defs>
        <path id="TimesNewRomanPSMT-30" d="M 231 2094 
Q 231 2819 450 3342 
Q 669 3866 1031 4122 
Q 1313 4325 1613 4325 
Q 2100 4325 2488 3828 
Q 2972 3213 2972 2159 
Q 2972 1422 2759 906 
Q 2547 391 2217 158 
Q 1888 -75 1581 -75 
Q 975 -75 572 641 
Q 231 1244 231 2094 
z
M 844 2016 
Q 844 1141 1059 588 
Q 1238 122 1591 122 
Q 1759 122 1940 273 
Q 2122 425 2216 781 
Q 2359 1319 2359 2297 
Q 2359 3022 2209 3506 
Q 2097 3866 1919 4016 
Q 1791 4119 1609 4119 
Q 1397 4119 1231 3928 
Q 1006 3669 925 3112 
Q 844 2556 844 2016 
z
" transform="scale(0.015625)"/>
       </defs>
       <use xlink:href="#TimesNewRomanPSMT-30"/>
      </g>
     </g>
    </g>
    <g id="xtick_2">
     <g id="line2d_2">
      <g>
       <use xlink:href="#m3d510b0817" x="155.404221" y="307.584" style="stroke: #000000; stroke-width: 0.8"/>
      </g>
     </g>
     <g id="text_2">
      <!-- 50 -->
      <g transform="translate(145.404221 328.4715) scale(0.2 -0.2)">
       <defs>
        <path id="TimesNewRomanPSMT-35" d="M 2778 4238 
L 2534 3706 
L 1259 3706 
L 981 3138 
Q 1809 3016 2294 2522 
Q 2709 2097 2709 1522 
Q 2709 1188 2573 903 
Q 2438 619 2231 419 
Q 2025 219 1772 97 
Q 1413 -75 1034 -75 
Q 653 -75 479 54 
Q 306 184 306 341 
Q 306 428 378 495 
Q 450 563 559 563 
Q 641 563 702 538 
Q 763 513 909 409 
Q 1144 247 1384 247 
Q 1750 247 2026 523 
Q 2303 800 2303 1197 
Q 2303 1581 2056 1914 
Q 1809 2247 1375 2428 
Q 1034 2569 447 2591 
L 1259 4238 
L 2778 4238 
z
" transform="scale(0.015625)"/>
       </defs>
       <use xlink:href="#TimesNewRomanPSMT-35"/>
       <use xlink:href="#TimesNewRomanPSMT-30" x="50"/>
      </g>
     </g>
    </g>
    <g id="xtick_3">
     <g id="line2d_3">
      <g>
       <use xlink:href="#m3d510b0817" x="236.975715" y="307.584" style="stroke: #000000; stroke-width: 0.8"/>
      </g>
     </g>
     <g id="text_3">
      <!-- 100 -->
      <g transform="translate(221.975715 328.4715) scale(0.2 -0.2)">
       <defs>
        <path id="TimesNewRomanPSMT-31" d="M 750 3822 
L 1781 4325 
L 1884 4325 
L 1884 747 
Q 1884 391 1914 303 
Q 1944 216 2037 169 
Q 2131 122 2419 116 
L 2419 0 
L 825 0 
L 825 116 
Q 1125 122 1212 167 
Q 1300 213 1334 289 
Q 1369 366 1369 747 
L 1369 3034 
Q 1369 3497 1338 3628 
Q 1316 3728 1258 3775 
Q 1200 3822 1119 3822 
Q 1003 3822 797 3725 
L 750 3822 
z
" transform="scale(0.015625)"/>
       </defs>
       <use xlink:href="#TimesNewRomanPSMT-31"/>
       <use xlink:href="#TimesNewRomanPSMT-30" x="50"/>
       <use xlink:href="#TimesNewRomanPSMT-30" x="100"/>
      </g>
     </g>
    </g>
    <g id="xtick_4">
     <g id="line2d_4">
      <g>
       <use xlink:href="#m3d510b0817" x="318.547209" y="307.584" style="stroke: #000000; stroke-width: 0.8"/>
      </g>
     </g>
     <g id="text_4">
      <!-- 150 -->
      <g transform="translate(303.547209 328.4715) scale(0.2 -0.2)">
       <use xlink:href="#TimesNewRomanPSMT-31"/>
       <use xlink:href="#TimesNewRomanPSMT-35" x="50"/>
       <use xlink:href="#TimesNewRomanPSMT-30" x="100"/>
      </g>
     </g>
    </g>
    <g id="xtick_5">
     <g id="line2d_5">
      <g>
       <use xlink:href="#m3d510b0817" x="400.118703" y="307.584" style="stroke: #000000; stroke-width: 0.8"/>
      </g>
     </g>
     <g id="text_5">
      <!-- 200 -->
      <g transform="translate(385.118703 328.4715) scale(0.2 -0.2)">
       <defs>
        <path id="TimesNewRomanPSMT-32" d="M 2934 816 
L 2638 0 
L 138 0 
L 138 116 
Q 1241 1122 1691 1759 
Q 2141 2397 2141 2925 
Q 2141 3328 1894 3587 
Q 1647 3847 1303 3847 
Q 991 3847 742 3664 
Q 494 3481 375 3128 
L 259 3128 
Q 338 3706 661 4015 
Q 984 4325 1469 4325 
Q 1984 4325 2329 3994 
Q 2675 3663 2675 3213 
Q 2675 2891 2525 2569 
Q 2294 2063 1775 1497 
Q 997 647 803 472 
L 1909 472 
Q 2247 472 2383 497 
Q 2519 522 2628 598 
Q 2738 675 2819 816 
L 2934 816 
z
" transform="scale(0.015625)"/>
       </defs>
       <use xlink:href="#TimesNewRomanPSMT-32"/>
       <use xlink:href="#TimesNewRomanPSMT-30" x="50"/>
       <use xlink:href="#TimesNewRomanPSMT-30" x="100"/>
      </g>
     </g>
    </g>
    <g id="text_6">
     <!-- epoch -->
     <g transform="translate(212.281875 350.637125) scale(0.2 -0.2)">
      <defs>
       <path id="TimesNewRomanPSMT-65" d="M 681 1784 
Q 678 1147 991 784 
Q 1303 422 1725 422 
Q 2006 422 2214 576 
Q 2422 731 2563 1106 
L 2659 1044 
Q 2594 616 2278 264 
Q 1963 -88 1488 -88 
Q 972 -88 605 314 
Q 238 716 238 1394 
Q 238 2128 614 2539 
Q 991 2950 1559 2950 
Q 2041 2950 2350 2633 
Q 2659 2316 2659 1784 
L 681 1784 
z
M 681 1966 
L 2006 1966 
Q 1991 2241 1941 2353 
Q 1863 2528 1708 2628 
Q 1553 2728 1384 2728 
Q 1125 2728 920 2526 
Q 716 2325 681 1966 
z
" transform="scale(0.015625)"/>
       <path id="TimesNewRomanPSMT-70" d="M -6 2578 
L 875 2934 
L 994 2934 
L 994 2266 
Q 1216 2644 1439 2795 
Q 1663 2947 1909 2947 
Q 2341 2947 2628 2609 
Q 2981 2197 2981 1534 
Q 2981 794 2556 309 
Q 2206 -88 1675 -88 
Q 1444 -88 1275 -22 
Q 1150 25 994 166 
L 994 -706 
Q 994 -1000 1030 -1079 
Q 1066 -1159 1155 -1206 
Q 1244 -1253 1478 -1253 
L 1478 -1369 
L -22 -1369 
L -22 -1253 
L 56 -1253 
Q 228 -1256 350 -1188 
Q 409 -1153 442 -1076 
Q 475 -1000 475 -688 
L 475 2019 
Q 475 2297 450 2372 
Q 425 2447 370 2484 
Q 316 2522 222 2522 
Q 147 2522 31 2478 
L -6 2578 
z
M 994 2081 
L 994 1013 
Q 994 666 1022 556 
Q 1066 375 1236 237 
Q 1406 100 1666 100 
Q 1978 100 2172 344 
Q 2425 663 2425 1241 
Q 2425 1897 2138 2250 
Q 1938 2494 1663 2494 
Q 1513 2494 1366 2419 
Q 1253 2363 994 2081 
z
" transform="scale(0.015625)"/>
       <path id="TimesNewRomanPSMT-6f" d="M 1600 2947 
Q 2250 2947 2644 2453 
Q 2978 2031 2978 1484 
Q 2978 1100 2793 706 
Q 2609 313 2286 112 
Q 1963 -88 1566 -88 
Q 919 -88 538 428 
Q 216 863 216 1403 
Q 216 1797 411 2186 
Q 606 2575 925 2761 
Q 1244 2947 1600 2947 
z
M 1503 2744 
Q 1338 2744 1170 2645 
Q 1003 2547 900 2300 
Q 797 2053 797 1666 
Q 797 1041 1045 587 
Q 1294 134 1700 134 
Q 2003 134 2200 384 
Q 2397 634 2397 1244 
Q 2397 2006 2069 2444 
Q 1847 2744 1503 2744 
z
" transform="scale(0.015625)"/>
       <path id="TimesNewRomanPSMT-63" d="M 2631 1088 
Q 2516 522 2178 217 
Q 1841 -88 1431 -88 
Q 944 -88 581 321 
Q 219 731 219 1428 
Q 219 2103 620 2525 
Q 1022 2947 1584 2947 
Q 2006 2947 2278 2723 
Q 2550 2500 2550 2259 
Q 2550 2141 2473 2067 
Q 2397 1994 2259 1994 
Q 2075 1994 1981 2113 
Q 1928 2178 1911 2362 
Q 1894 2547 1784 2644 
Q 1675 2738 1481 2738 
Q 1169 2738 978 2506 
Q 725 2200 725 1697 
Q 725 1184 976 792 
Q 1228 400 1656 400 
Q 1963 400 2206 609 
Q 2378 753 2541 1131 
L 2631 1088 
z
" transform="scale(0.015625)"/>
       <path id="TimesNewRomanPSMT-68" d="M 1041 4444 
L 1041 2350 
Q 1388 2731 1591 2839 
Q 1794 2947 1997 2947 
Q 2241 2947 2416 2812 
Q 2591 2678 2675 2391 
Q 2734 2191 2734 1659 
L 2734 647 
Q 2734 375 2778 275 
Q 2809 200 2884 156 
Q 2959 113 3159 113 
L 3159 0 
L 1753 0 
L 1753 113 
L 1819 113 
Q 2019 113 2097 173 
Q 2175 234 2206 353 
Q 2216 403 2216 647 
L 2216 1659 
Q 2216 2128 2167 2275 
Q 2119 2422 2012 2495 
Q 1906 2569 1756 2569 
Q 1603 2569 1437 2487 
Q 1272 2406 1041 2159 
L 1041 647 
Q 1041 353 1073 281 
Q 1106 209 1195 161 
Q 1284 113 1503 113 
L 1503 0 
L 84 0 
L 84 113 
Q 275 113 384 172 
Q 447 203 484 290 
Q 522 378 522 647 
L 522 3238 
Q 522 3728 498 3840 
Q 475 3953 426 3993 
Q 378 4034 297 4034 
Q 231 4034 84 3984 
L 41 4094 
L 897 4444 
L 1041 4444 
z
" transform="scale(0.015625)"/>
      </defs>
      <use xlink:href="#TimesNewRomanPSMT-65"/>
      <use xlink:href="#TimesNewRomanPSMT-70" x="44.384766"/>
      <use xlink:href="#TimesNewRomanPSMT-6f" x="94.384766"/>
      <use xlink:href="#TimesNewRomanPSMT-63" x="144.384766"/>
      <use xlink:href="#TimesNewRomanPSMT-68" x="188.769531"/>
     </g>
    </g>
   </g>
   <g id="matplotlib.axis_2">
    <g id="ytick_1">
     <g id="line2d_6">
      <defs>
       <path id="mcfc681b857" d="M 0 0 
L -3.5 0 
" style="stroke: #000000; stroke-width: 0.8"/>
      </defs>
      <g>
       <use xlink:href="#mcfc681b857" x="57.6" y="297.224831" style="stroke: #000000; stroke-width: 0.8"/>
      </g>
     </g>
     <g id="text_7">
      <!-- 0.0 -->
      <g transform="translate(25.6 304.168581) scale(0.2 -0.2)">
       <defs>
        <path id="TimesNewRomanPSMT-2e" d="M 800 606 
Q 947 606 1047 504 
Q 1147 403 1147 259 
Q 1147 116 1045 14 
Q 944 -88 800 -88 
Q 656 -88 554 14 
Q 453 116 453 259 
Q 453 406 554 506 
Q 656 606 800 606 
z
" transform="scale(0.015625)"/>
       </defs>
       <use xlink:href="#TimesNewRomanPSMT-30"/>
       <use xlink:href="#TimesNewRomanPSMT-2e" x="50"/>
       <use xlink:href="#TimesNewRomanPSMT-30" x="75"/>
      </g>
     </g>
    </g>
    <g id="ytick_2">
     <g id="line2d_7">
      <g>
       <use xlink:href="#mcfc681b857" x="57.6" y="250.591252" style="stroke: #000000; stroke-width: 0.8"/>
      </g>
     </g>
     <g id="text_8">
      <!-- 0.2 -->
      <g transform="translate(25.6 257.535002) scale(0.2 -0.2)">
       <use xlink:href="#TimesNewRomanPSMT-30"/>
       <use xlink:href="#TimesNewRomanPSMT-2e" x="50"/>
       <use xlink:href="#TimesNewRomanPSMT-32" x="75"/>
      </g>
     </g>
    </g>
    <g id="ytick_3">
     <g id="line2d_8">
      <g>
       <use xlink:href="#mcfc681b857" x="57.6" y="203.957673" style="stroke: #000000; stroke-width: 0.8"/>
      </g>
     </g>
     <g id="text_9">
      <!-- 0.4 -->
      <g transform="translate(25.6 210.901423) scale(0.2 -0.2)">
       <defs>
        <path id="TimesNewRomanPSMT-34" d="M 2978 1563 
L 2978 1119 
L 2409 1119 
L 2409 0 
L 1894 0 
L 1894 1119 
L 100 1119 
L 100 1519 
L 2066 4325 
L 2409 4325 
L 2409 1563 
L 2978 1563 
z
M 1894 1563 
L 1894 3666 
L 406 1563 
L 1894 1563 
z
" transform="scale(0.015625)"/>
       </defs>
       <use xlink:href="#TimesNewRomanPSMT-30"/>
       <use xlink:href="#TimesNewRomanPSMT-2e" x="50"/>
       <use xlink:href="#TimesNewRomanPSMT-34" x="75"/>
      </g>
     </g>
    </g>
    <g id="ytick_4">
     <g id="line2d_9">
      <g>
       <use xlink:href="#mcfc681b857" x="57.6" y="157.324094" style="stroke: #000000; stroke-width: 0.8"/>
      </g>
     </g>
     <g id="text_10">
      <!-- 0.6 -->
      <g transform="translate(25.6 164.267844) scale(0.2 -0.2)">
       <defs>
        <path id="TimesNewRomanPSMT-36" d="M 2869 4325 
L 2869 4209 
Q 2456 4169 2195 4045 
Q 1934 3922 1679 3669 
Q 1425 3416 1258 3105 
Q 1091 2794 978 2366 
Q 1428 2675 1881 2675 
Q 2316 2675 2634 2325 
Q 2953 1975 2953 1425 
Q 2953 894 2631 456 
Q 2244 -75 1606 -75 
Q 1172 -75 869 213 
Q 275 772 275 1663 
Q 275 2231 503 2743 
Q 731 3256 1154 3653 
Q 1578 4050 1965 4187 
Q 2353 4325 2688 4325 
L 2869 4325 
z
M 925 2138 
Q 869 1716 869 1456 
Q 869 1156 980 804 
Q 1091 453 1309 247 
Q 1469 100 1697 100 
Q 1969 100 2183 356 
Q 2397 613 2397 1088 
Q 2397 1622 2184 2012 
Q 1972 2403 1581 2403 
Q 1463 2403 1327 2353 
Q 1191 2303 925 2138 
z
" transform="scale(0.015625)"/>
       </defs>
       <use xlink:href="#TimesNewRomanPSMT-30"/>
       <use xlink:href="#TimesNewRomanPSMT-2e" x="50"/>
       <use xlink:href="#TimesNewRomanPSMT-36" x="75"/>
      </g>
     </g>
    </g>
    <g id="ytick_5">
     <g id="line2d_10">
      <g>
       <use xlink:href="#mcfc681b857" x="57.6" y="110.690515" style="stroke: #000000; stroke-width: 0.8"/>
      </g>
     </g>
     <g id="text_11">
      <!-- 0.8 -->
      <g transform="translate(25.6 117.634265) scale(0.2 -0.2)">
       <defs>
        <path id="TimesNewRomanPSMT-38" d="M 1228 2134 
Q 725 2547 579 2797 
Q 434 3047 434 3316 
Q 434 3728 753 4026 
Q 1072 4325 1600 4325 
Q 2113 4325 2425 4047 
Q 2738 3769 2738 3413 
Q 2738 3175 2569 2928 
Q 2400 2681 1866 2347 
Q 2416 1922 2594 1678 
Q 2831 1359 2831 1006 
Q 2831 559 2490 242 
Q 2150 -75 1597 -75 
Q 994 -75 656 303 
Q 388 606 388 966 
Q 388 1247 577 1523 
Q 766 1800 1228 2134 
z
M 1719 2469 
Q 2094 2806 2194 3001 
Q 2294 3197 2294 3444 
Q 2294 3772 2109 3958 
Q 1925 4144 1606 4144 
Q 1288 4144 1088 3959 
Q 888 3775 888 3528 
Q 888 3366 970 3203 
Q 1053 3041 1206 2894 
L 1719 2469 
z
M 1375 2016 
Q 1116 1797 991 1539 
Q 866 1281 866 981 
Q 866 578 1086 336 
Q 1306 94 1647 94 
Q 1984 94 2187 284 
Q 2391 475 2391 747 
Q 2391 972 2272 1150 
Q 2050 1481 1375 2016 
z
" transform="scale(0.015625)"/>
       </defs>
       <use xlink:href="#TimesNewRomanPSMT-30"/>
       <use xlink:href="#TimesNewRomanPSMT-2e" x="50"/>
       <use xlink:href="#TimesNewRomanPSMT-38" x="75"/>
      </g>
     </g>
    </g>
    <g id="ytick_6">
     <g id="line2d_11">
      <g>
       <use xlink:href="#mcfc681b857" x="57.6" y="64.056937" style="stroke: #000000; stroke-width: 0.8"/>
      </g>
     </g>
     <g id="text_12">
      <!-- 1.0 -->
      <g transform="translate(25.6 71.000687) scale(0.2 -0.2)">
       <use xlink:href="#TimesNewRomanPSMT-31"/>
       <use xlink:href="#TimesNewRomanPSMT-2e" x="50"/>
       <use xlink:href="#TimesNewRomanPSMT-30" x="75"/>
      </g>
     </g>
    </g>
    <g id="text_13">
     <!-- loss -->
     <g transform="translate(17.321875 190.0905) rotate(-90) scale(0.2 -0.2)">
      <defs>
       <path id="TimesNewRomanPSMT-6c" d="M 1184 4444 
L 1184 647 
Q 1184 378 1223 290 
Q 1263 203 1344 158 
Q 1425 113 1647 113 
L 1647 0 
L 244 0 
L 244 113 
Q 441 113 512 153 
Q 584 194 625 287 
Q 666 381 666 647 
L 666 3247 
Q 666 3731 644 3842 
Q 622 3953 573 3993 
Q 525 4034 450 4034 
Q 369 4034 244 3984 
L 191 4094 
L 1044 4444 
L 1184 4444 
z
" transform="scale(0.015625)"/>
       <path id="TimesNewRomanPSMT-73" d="M 2050 2947 
L 2050 1972 
L 1947 1972 
Q 1828 2431 1642 2597 
Q 1456 2763 1169 2763 
Q 950 2763 815 2647 
Q 681 2531 681 2391 
Q 681 2216 781 2091 
Q 878 1963 1175 1819 
L 1631 1597 
Q 2266 1288 2266 781 
Q 2266 391 1970 151 
Q 1675 -88 1309 -88 
Q 1047 -88 709 6 
Q 606 38 541 38 
Q 469 38 428 -44 
L 325 -44 
L 325 978 
L 428 978 
Q 516 541 762 319 
Q 1009 97 1316 97 
Q 1531 97 1667 223 
Q 1803 350 1803 528 
Q 1803 744 1651 891 
Q 1500 1038 1047 1263 
Q 594 1488 453 1669 
Q 313 1847 313 2119 
Q 313 2472 555 2709 
Q 797 2947 1181 2947 
Q 1350 2947 1591 2875 
Q 1750 2828 1803 2828 
Q 1853 2828 1881 2850 
Q 1909 2872 1947 2947 
L 2050 2947 
z
" transform="scale(0.015625)"/>
      </defs>
      <use xlink:href="#TimesNewRomanPSMT-6c"/>
      <use xlink:href="#TimesNewRomanPSMT-6f" x="27.783203"/>
      <use xlink:href="#TimesNewRomanPSMT-73" x="77.783203"/>
      <use xlink:href="#TimesNewRomanPSMT-73" x="116.699219"/>
     </g>
    </g>
   </g>
   <g id="line2d_12">
    <path d="M 73.832727 73.142875 
L 75.464157 93.626385 
L 78.727017 111.982042 
L 80.358447 122.87882 
L 81.989877 130.531573 
L 83.621307 136.91317 
L 85.252736 152.424425 
L 86.884166 165.828213 
L 88.515596 157.192372 
L 90.147026 171.036818 
L 91.778456 179.742215 
L 93.409886 190.902485 
L 95.041316 204.054392 
L 96.672746 211.340005 
L 98.304175 220.127589 
L 99.935605 223.374058 
L 101.567035 232.925597 
L 103.198465 235.332534 
L 104.829895 234.843077 
L 106.461325 228.533614 
L 108.092755 234.520887 
L 109.724185 252.57374 
L 111.355614 255.405566 
L 112.987044 258.710843 
L 114.618474 261.042177 
L 116.249904 259.046795 
L 117.881334 264.135598 
L 119.512764 265.336165 
L 121.144194 270.560245 
L 122.775624 272.295276 
L 124.407053 274.214857 
L 126.038483 275.231597 
L 127.669913 273.370378 
L 129.301343 275.970367 
L 130.932773 277.470745 
L 132.564203 276.757937 
L 134.195633 276.807302 
L 135.827063 273.28159 
L 137.458492 277.244864 
L 140.721352 282.077114 
L 142.352782 282.849005 
L 143.984212 284.124364 
L 145.615642 284.35656 
L 147.247072 286.198702 
L 150.509931 286.842103 
L 152.141361 287.428653 
L 153.772791 288.500801 
L 155.404221 288.906971 
L 157.035651 288.571645 
L 158.667081 288.366 
L 160.298511 286.283341 
L 161.929941 286.459689 
L 163.56137 286.466623 
L 165.1928 288.260875 
L 166.82423 288.662185 
L 168.45566 287.825399 
L 170.08709 289.339334 
L 171.71852 289.920947 
L 173.34995 289.249257 
L 176.61281 290.948417 
L 178.244239 290.797065 
L 179.875669 287.631395 
L 181.507099 286.425463 
L 183.138529 288.011679 
L 184.769959 288.414723 
L 186.401389 289.677514 
L 188.032819 291.115514 
L 189.664249 289.383846 
L 191.295678 289.33654 
L 192.927108 288.231298 
L 194.558538 289.366819 
L 196.189968 289.1608 
L 197.821398 289.69008 
L 199.452828 288.122561 
L 201.084258 289.366807 
L 202.715688 290.846045 
L 204.347117 289.101499 
L 205.978547 288.637922 
L 207.609977 290.582058 
L 209.241407 291.29652 
L 210.872837 290.262066 
L 212.504267 289.763724 
L 214.135697 290.134453 
L 215.767127 289.939916 
L 217.398556 288.280779 
L 219.029986 286.142338 
L 220.661416 286.899959 
L 222.292846 286.233314 
L 223.924276 286.371749 
L 225.555706 288.54082 
L 227.187136 287.607154 
L 228.818566 289.413662 
L 230.449995 289.822517 
L 233.712855 293.006912 
L 236.975715 293.196946 
L 238.607145 293.413128 
L 240.238575 294.026939 
L 241.870005 294.16035 
L 243.501434 293.831511 
L 245.132864 294.184923 
L 246.764294 294.395284 
L 248.395724 294.430823 
L 250.027154 294.097254 
L 251.658584 294.369982 
L 253.290014 294.370062 
L 256.552873 292.972433 
L 258.184303 293.254821 
L 259.815733 292.754171 
L 261.447163 291.432191 
L 263.078593 290.275954 
L 266.341453 288.790011 
L 267.972883 287.785815 
L 271.235742 287.292861 
L 272.867172 287.452514 
L 274.498602 290.193018 
L 277.761462 293.092336 
L 281.024322 293.967814 
L 284.287181 294.659958 
L 285.918611 294.445719 
L 289.181471 294.942465 
L 295.70719 294.884234 
L 297.33862 294.756187 
L 298.97005 294.320175 
L 300.60148 294.101313 
L 302.23291 294.305427 
L 303.86434 293.3835 
L 307.1272 292.700742 
L 310.390059 291.245985 
L 312.021489 290.80652 
L 313.652919 290.499071 
L 315.284349 290.575097 
L 316.915779 290.017305 
L 318.547209 290.777791 
L 321.810069 292.750317 
L 323.441498 294.198515 
L 326.704358 294.896008 
L 328.335788 294.994151 
L 331.598648 295.488 
L 333.230078 295.406225 
L 338.124367 295.476526 
L 339.755797 295.169891 
L 343.018657 294.924284 
L 346.281517 294.158288 
L 349.544376 294.242561 
L 351.175806 293.981348 
L 354.438666 292.882512 
L 356.070096 292.670475 
L 357.701526 292.159933 
L 359.332956 292.211102 
L 360.964386 291.490315 
L 362.595815 291.002576 
L 364.227245 292.703542 
L 365.858675 293.973284 
L 367.490105 294.666546 
L 369.121535 295.040434 
L 374.015825 295.434333 
L 375.647254 295.366031 
L 377.278684 294.717831 
L 378.910114 294.483869 
L 380.541544 294.391265 
L 383.804404 292.568726 
L 385.435834 292.810271 
L 387.067264 293.446925 
L 388.698693 292.719902 
L 391.961553 293.749948 
L 393.592983 293.997891 
L 396.855843 295.013531 
L 398.487273 294.370278 
L 398.487273 294.370278 
" clip-path="url(#p755e25f410)" style="fill: none; stroke: #1f77b4; stroke-width: 1.5; stroke-linecap: square"/>
   </g>
   <g id="line2d_13">
    <path d="M 73.832727 66.554062 
L 75.464157 77.609539 
L 77.095587 84.347507 
L 78.727017 87.251214 
L 80.358447 85.9913 
L 81.989877 89.518098 
L 83.621307 92.113349 
L 85.252736 93.72484 
L 86.884166 97.080938 
L 88.515596 99.215364 
L 90.147026 98.741899 
L 91.778456 94.619878 
L 93.409886 103.05702 
L 95.041316 104.597667 
L 98.304175 111.192406 
L 99.935605 103.266213 
L 101.567035 102.232045 
L 103.198465 107.517776 
L 104.829895 114.050321 
L 106.461325 117.727094 
L 108.092755 117.646381 
L 109.724185 119.78415 
L 111.355614 117.341461 
L 112.987044 122.699217 
L 114.618474 116.774826 
L 116.249904 120.486668 
L 117.881334 121.789572 
L 119.512764 128.936106 
L 121.144194 133.820108 
L 122.775624 134.840557 
L 124.407053 131.625819 
L 126.038483 136.970945 
L 127.669913 132.35939 
L 129.301343 133.3715 
L 130.932773 137.574492 
L 132.564203 145.559774 
L 134.195633 145.624507 
L 135.827063 137.333889 
L 137.458492 138.26267 
L 139.089922 144.314702 
L 140.721352 150.988922 
L 142.352782 141.607049 
L 143.984212 150.804911 
L 145.615642 155.877592 
L 147.247072 153.952343 
L 148.878502 151.040801 
L 150.509931 159.634924 
L 152.141361 159.332918 
L 153.772791 160.084067 
L 155.404221 163.597437 
L 157.035651 159.706989 
L 158.667081 160.282672 
L 160.298511 160.068167 
L 161.929941 163.1655 
L 163.56137 166.848011 
L 165.1928 165.922877 
L 166.82423 158.585633 
L 168.45566 164.496997 
L 170.08709 166.299181 
L 171.71852 167.261329 
L 173.34995 172.67468 
L 174.98138 171.73837 
L 176.61281 163.463612 
L 178.244239 173.620966 
L 179.875669 179.538862 
L 181.507099 171.204105 
L 183.138529 180.880602 
L 184.769959 184.065199 
L 186.401389 182.588624 
L 188.032819 189.307807 
L 189.664249 192.109114 
L 191.295678 182.502819 
L 192.927108 186.088554 
L 194.558538 187.792803 
L 196.189968 183.692684 
L 197.821398 189.968955 
L 199.452828 192.256454 
L 201.084258 188.973602 
L 202.715688 195.975911 
L 204.347117 188.39833 
L 205.978547 178.579121 
L 207.609977 186.270924 
L 209.241407 192.546372 
L 210.872837 201.54636 
L 212.504267 204.883474 
L 214.135697 199.124439 
L 215.767127 186.84062 
L 217.398556 196.363218 
L 219.029986 201.338941 
L 220.661416 201.472902 
L 222.292846 204.414755 
L 223.924276 197.622664 
L 227.187136 206.905761 
L 228.818566 213.423915 
L 230.449995 207.278443 
L 232.081425 208.587552 
L 233.712855 217.741901 
L 235.344285 221.009606 
L 236.975715 222.357526 
L 238.607145 225.351242 
L 240.238575 224.005336 
L 241.870005 217.644954 
L 243.501434 215.138135 
L 245.132864 218.53178 
L 246.764294 220.583453 
L 248.395724 221.755161 
L 250.027154 215.593317 
L 251.658584 205.953433 
L 253.290014 212.549854 
L 254.921444 219.672407 
L 256.552873 214.933304 
L 258.184303 215.046338 
L 259.815733 215.673107 
L 261.447163 216.065477 
L 263.078593 226.552206 
L 264.710023 232.425973 
L 266.341453 231.416168 
L 267.972883 227.787076 
L 269.604312 227.200489 
L 271.235742 237.791698 
L 272.867172 241.084254 
L 274.498602 238.763633 
L 276.130032 232.233826 
L 277.761462 235.441285 
L 279.392892 245.58997 
L 281.024322 248.074114 
L 282.655751 246.142376 
L 284.287181 246.802917 
L 285.918611 245.57832 
L 287.550041 241.441149 
L 289.181471 239.781907 
L 290.812901 230.662654 
L 292.444331 238.653459 
L 294.075761 243.708083 
L 295.70719 243.136784 
L 297.33862 250.143881 
L 298.97005 253.380171 
L 300.60148 253.358856 
L 302.23291 254.166273 
L 303.86434 254.242031 
L 305.49577 256.902141 
L 307.1272 255.857639 
L 308.75863 255.746117 
L 310.390059 260.147989 
L 312.021489 261.978784 
L 313.652919 262.420113 
L 315.284349 256.073123 
L 316.915779 251.402814 
L 318.547209 250.098191 
L 320.178639 239.254067 
L 321.810069 238.153104 
L 323.441498 248.588304 
L 325.072928 247.175233 
L 326.704358 241.546735 
L 328.335788 248.361913 
L 329.967218 249.460374 
L 331.598648 253.455885 
L 333.230078 262.054595 
L 334.861508 264.594958 
L 336.492937 266.17525 
L 338.124367 268.660365 
L 341.387227 272.973499 
L 344.650087 274.766761 
L 346.281517 276.388275 
L 347.912947 275.166698 
L 349.544376 274.921802 
L 351.175806 275.443962 
L 352.807236 274.020708 
L 354.438666 273.999508 
L 356.070096 270.503242 
L 357.701526 271.658209 
L 359.332956 273.646636 
L 360.964386 270.767418 
L 362.595815 269.966317 
L 364.227245 271.974838 
L 365.858675 271.748657 
L 367.490105 271.327577 
L 369.121535 271.061717 
L 370.752965 273.696696 
L 372.384395 276.742212 
L 374.015825 278.730304 
L 375.647254 279.287026 
L 377.278684 277.761157 
L 378.910114 276.819809 
L 380.541544 277.579774 
L 382.172974 275.957725 
L 383.804404 274.914567 
L 385.435834 274.256308 
L 388.698693 277.297577 
L 390.330123 278.158659 
L 391.961553 277.509991 
L 393.592983 275.875102 
L 396.855843 269.191625 
L 398.487273 271.366708 
L 398.487273 271.366708 
" clip-path="url(#p755e25f410)" style="fill: none; stroke: #ff7f0e; stroke-width: 1.5; stroke-linecap: square"/>
   </g>
   <g id="line2d_14">
    <path d="M 73.832727 65.584035 
L 75.464157 93.669953 
L 77.095587 97.915102 
L 78.727017 105.660134 
L 80.358447 111.895852 
L 81.989877 120.912024 
L 85.252736 142.720966 
L 86.884166 150.609965 
L 88.515596 151.767672 
L 91.778456 164.460767 
L 93.409886 186.615359 
L 95.041316 196.25138 
L 96.672746 197.421388 
L 99.935605 216.29903 
L 101.567035 226.366623 
L 103.198465 232.057371 
L 104.829895 230.07744 
L 106.461325 233.846438 
L 108.092755 237.090573 
L 109.724185 246.334599 
L 111.355614 243.501459 
L 112.987044 248.615828 
L 114.618474 256.988484 
L 116.249904 255.403678 
L 117.881334 260.832235 
L 119.512764 261.197787 
L 121.144194 264.217524 
L 122.775624 270.885265 
L 124.407053 266.865455 
L 126.038483 265.308869 
L 127.669913 271.586666 
L 129.301343 274.78375 
L 130.932773 277.641274 
L 132.564203 278.805273 
L 134.195633 277.887106 
L 135.827063 274.207316 
L 137.458492 277.0903 
L 139.089922 280.475853 
L 140.721352 280.572909 
L 142.352782 278.421643 
L 143.984212 279.629437 
L 145.615642 278.627001 
L 147.247072 278.325482 
L 148.878502 280.490327 
L 150.509931 281.601277 
L 152.141361 282.058926 
L 153.772791 282.184428 
L 155.404221 280.074228 
L 157.035651 281.344158 
L 158.667081 285.919975 
L 160.298511 287.980346 
L 161.929941 289.736818 
L 163.56137 289.007635 
L 165.1928 289.470541 
L 168.45566 290.031115 
L 170.08709 288.774431 
L 171.71852 289.317183 
L 173.34995 286.236137 
L 174.98138 286.917576 
L 176.61281 286.075555 
L 178.244239 286.567666 
L 179.875669 284.959912 
L 181.507099 284.712382 
L 183.138529 283.467343 
L 184.769959 285.119872 
L 186.401389 285.15117 
L 188.032819 286.382646 
L 189.664249 283.583918 
L 191.295678 285.294733 
L 192.927108 287.334413 
L 194.558538 288.59173 
L 196.189968 288.894117 
L 197.821398 288.416881 
L 199.452828 288.27458 
L 201.084258 288.512763 
L 202.715688 289.82543 
L 204.347117 288.018994 
L 205.978547 288.514291 
L 207.609977 288.507251 
L 209.241407 289.678032 
L 212.504267 287.579785 
L 214.135697 288.798719 
L 215.767127 288.114938 
L 217.398556 289.270333 
L 219.029986 288.953366 
L 220.661416 290.101629 
L 222.292846 290.15689 
L 223.924276 288.746562 
L 225.555706 289.877336 
L 227.187136 289.979252 
L 228.818566 289.618519 
L 230.449995 288.547857 
L 233.712855 287.472853 
L 235.344285 288.899369 
L 236.975715 289.617687 
L 238.607145 289.797689 
L 240.238575 291.118205 
L 241.870005 290.725339 
L 243.501434 290.797596 
L 245.132864 290.510772 
L 246.764294 290.024558 
L 248.395724 289.797012 
L 250.027154 290.209319 
L 251.658584 289.287547 
L 253.290014 290.184098 
L 254.921444 290.664015 
L 256.552873 290.491967 
L 258.184303 291.354534 
L 259.815733 290.854461 
L 261.447163 291.527469 
L 263.078593 291.166636 
L 264.710023 291.693294 
L 266.341453 291.82804 
L 267.972883 291.046769 
L 269.604312 290.748008 
L 271.235742 289.893222 
L 272.867172 291.171422 
L 274.498602 291.97445 
L 276.130032 290.77635 
L 277.761462 291.089003 
L 279.392892 290.862721 
L 281.024322 290.090157 
L 282.655751 290.674902 
L 284.287181 290.193533 
L 287.550041 288.212367 
L 289.181471 288.084063 
L 290.812901 288.426374 
L 294.075761 290.227573 
L 295.70719 291.827964 
L 297.33862 290.205122 
L 298.97005 290.977048 
L 300.60148 291.093857 
L 302.23291 290.984789 
L 303.86434 289.654839 
L 305.49577 290.128376 
L 307.1272 290.375428 
L 310.390059 292.066131 
L 312.021489 291.491744 
L 313.652919 292.392563 
L 315.284349 291.792721 
L 316.915779 292.511719 
L 318.547209 292.266627 
L 320.178639 292.335561 
L 321.810069 292.823458 
L 323.441498 292.580405 
L 325.072928 292.975039 
L 326.704358 292.764366 
L 329.967218 292.077141 
L 331.598648 292.311719 
L 333.230078 292.067453 
L 334.861508 292.149047 
L 338.124367 291.778525 
L 339.755797 291.831488 
L 341.387227 292.086153 
L 343.018657 292.077219 
L 346.281517 292.399403 
L 347.912947 291.643369 
L 349.544376 291.039013 
L 351.175806 290.956659 
L 352.807236 291.431338 
L 354.438666 290.965324 
L 356.070096 292.030117 
L 357.701526 293.349176 
L 359.332956 293.92644 
L 360.964386 294.110257 
L 362.595815 293.562325 
L 364.227245 293.16699 
L 365.858675 293.680102 
L 367.490105 292.848875 
L 369.121535 292.967568 
L 370.752965 292.336103 
L 372.384395 292.64107 
L 374.015825 292.724205 
L 375.647254 291.906351 
L 377.278684 292.038175 
L 378.910114 291.212333 
L 382.172974 292.365517 
L 383.804404 292.402076 
L 385.435834 291.805602 
L 387.067264 292.440672 
L 388.698693 292.711182 
L 390.330123 293.152531 
L 391.961553 293.200627 
L 393.592983 293.837171 
L 395.224413 293.339974 
L 396.855843 293.054993 
L 398.487273 292.580038 
L 398.487273 292.580038 
" clip-path="url(#p755e25f410)" style="fill: none; stroke: #2ca02c; stroke-width: 1.5; stroke-linecap: square"/>
   </g>
   <g id="line2d_15">
    <path d="M 73.832727 68.55801 
L 75.464157 83.050663 
L 77.095587 95.155574 
L 78.727017 103.976225 
L 80.358447 107.669396 
L 83.621307 121.009722 
L 85.252736 127.299602 
L 86.884166 135.78547 
L 88.515596 140.229964 
L 90.147026 137.926939 
L 91.778456 147.197325 
L 93.409886 157.842743 
L 95.041316 165.682115 
L 96.672746 171.153223 
L 98.304175 179.199965 
L 99.935605 185.040835 
L 101.567035 182.17918 
L 103.198465 186.170639 
L 104.829895 191.742959 
L 106.461325 194.212219 
L 108.092755 199.02923 
L 109.724185 200.269474 
L 111.355614 200.244115 
L 112.987044 205.136496 
L 114.618474 215.469829 
L 116.249904 217.895299 
L 117.881334 221.413699 
L 119.512764 216.620879 
L 121.144194 220.696793 
L 122.775624 226.072055 
L 124.407053 228.766631 
L 127.669913 232.427 
L 129.301343 234.014789 
L 130.932773 234.035328 
L 132.564203 234.518655 
L 134.195633 236.614323 
L 135.827063 238.391246 
L 137.458492 239.949338 
L 139.089922 241.082734 
L 140.721352 244.119305 
L 142.352782 243.694614 
L 143.984212 242.407882 
L 145.615642 246.066732 
L 147.247072 247.370076 
L 148.878502 249.690722 
L 150.509931 249.179913 
L 152.141361 248.464389 
L 153.772791 248.903839 
L 155.404221 250.345506 
L 157.035651 247.93066 
L 158.667081 249.731645 
L 160.298511 248.480125 
L 161.929941 248.339701 
L 163.56137 251.924784 
L 165.1928 254.296138 
L 168.45566 258.058072 
L 170.08709 257.908428 
L 171.71852 258.696888 
L 173.34995 258.498686 
L 174.98138 259.27487 
L 176.61281 260.920181 
L 178.244239 258.965716 
L 179.875669 259.024799 
L 181.507099 261.643993 
L 183.138529 261.198787 
L 184.769959 260.07202 
L 186.401389 262.515671 
L 188.032819 261.01355 
L 189.664249 261.580681 
L 191.295678 263.04769 
L 192.927108 259.466632 
L 194.558538 259.063867 
L 196.189968 263.541076 
L 197.821398 264.141838 
L 199.452828 266.010224 
L 201.084258 267.011482 
L 202.715688 267.010835 
L 207.609977 268.439847 
L 209.241407 266.082628 
L 210.872837 266.61573 
L 212.504267 268.027066 
L 214.135697 267.867768 
L 215.767127 268.53501 
L 217.398556 269.701574 
L 220.661416 269.411575 
L 222.292846 270.096139 
L 225.555706 270.504121 
L 227.187136 271.363814 
L 228.818566 271.626871 
L 230.449995 271.437894 
L 232.081425 272.06657 
L 233.712855 271.45325 
L 235.344285 272.128029 
L 236.975715 272.406248 
L 238.607145 272.076004 
L 240.238575 272.796288 
L 241.870005 271.522656 
L 243.501434 268.081535 
L 245.132864 269.86157 
L 246.764294 267.971814 
L 248.395724 263.755084 
L 251.658584 271.864525 
L 253.290014 273.764802 
L 254.921444 275.471516 
L 256.552873 275.871619 
L 259.815733 277.649629 
L 261.447163 277.235029 
L 263.078593 277.771033 
L 264.710023 277.865477 
L 266.341453 278.338466 
L 267.972883 278.596553 
L 269.604312 278.469608 
L 271.235742 278.873626 
L 272.867172 278.097667 
L 274.498602 279.324204 
L 276.130032 278.575442 
L 277.761462 278.703505 
L 279.392892 279.092071 
L 281.024322 278.950668 
L 282.655751 279.281813 
L 284.287181 278.319197 
L 285.918611 278.348675 
L 287.550041 277.977163 
L 289.181471 277.331346 
L 290.812901 278.129331 
L 292.444331 276.832039 
L 294.075761 277.085337 
L 295.70719 276.591841 
L 297.33862 277.048768 
L 298.97005 279.282755 
L 300.60148 279.620474 
L 303.86434 280.702093 
L 305.49577 281.31831 
L 307.1272 281.547703 
L 308.75863 282.699251 
L 310.390059 282.726024 
L 312.021489 282.020126 
L 313.652919 281.747603 
L 315.284349 281.93054 
L 316.915779 282.225913 
L 318.547209 281.766056 
L 320.178639 281.739327 
L 323.441498 281.213434 
L 325.072928 281.632361 
L 326.704358 281.608837 
L 328.335788 281.204071 
L 331.598648 281.122831 
L 333.230078 281.367055 
L 334.861508 282.544041 
L 336.492937 282.818071 
L 338.124367 282.548762 
L 339.755797 283.35545 
L 341.387227 282.927247 
L 343.018657 282.093612 
L 344.650087 283.524074 
L 349.544376 284.633487 
L 351.175806 284.037236 
L 352.807236 285.264639 
L 354.438666 285.50386 
L 356.070096 285.607372 
L 357.701526 285.302719 
L 359.332956 286.255848 
L 360.964386 286.098094 
L 362.595815 286.265555 
L 364.227245 285.960032 
L 365.858675 286.590549 
L 367.490105 286.576059 
L 370.752965 286.207978 
L 372.384395 285.65008 
L 374.015825 284.5844 
L 375.647254 285.388652 
L 378.910114 285.013924 
L 380.541544 286.410207 
L 383.804404 287.575661 
L 385.435834 286.365611 
L 387.067264 286.934119 
L 388.698693 286.992899 
L 390.330123 286.075965 
L 391.961553 285.636263 
L 393.592983 286.134597 
L 395.224413 285.550297 
L 396.855843 286.329465 
L 398.487273 286.58449 
L 398.487273 286.58449 
" clip-path="url(#p755e25f410)" style="fill: none; stroke: #d62728; stroke-width: 1.5; stroke-linecap: square"/>
   </g>
   <g id="line2d_16">
    <path d="M 73.832727 67.344701 
L 75.464157 86.012986 
L 77.095587 90.658232 
L 80.358447 96.282221 
L 81.989877 98.122602 
L 83.621307 98.755626 
L 85.252736 100.379763 
L 86.884166 100.575048 
L 88.515596 101.618361 
L 90.147026 103.356252 
L 91.778456 104.090436 
L 93.409886 105.033455 
L 98.304175 112.040629 
L 101.567035 116.532398 
L 104.829895 122.659134 
L 106.461325 125.511022 
L 108.092755 128.681405 
L 111.355614 136.851668 
L 112.987044 140.289151 
L 114.618474 143.017121 
L 119.512764 160.583834 
L 121.144194 164.168565 
L 124.407053 176.688101 
L 126.038483 180.907898 
L 127.669913 184.328959 
L 129.301343 190.601536 
L 130.932773 195.91301 
L 132.564203 195.470914 
L 134.195633 198.078642 
L 135.827063 203.332297 
L 137.458492 206.087824 
L 139.089922 206.709478 
L 140.721352 203.027277 
L 142.352782 207.963453 
L 143.984212 209.714112 
L 145.615642 213.72449 
L 147.247072 219.362063 
L 148.878502 222.445939 
L 150.509931 221.202924 
L 152.141361 225.37587 
L 153.772791 227.242713 
L 155.404221 227.568917 
L 157.035651 229.155383 
L 158.667081 229.298711 
L 160.298511 230.969671 
L 161.929941 230.430752 
L 163.56137 232.946075 
L 165.1928 234.911035 
L 166.82423 236.078153 
L 168.45566 238.20897 
L 170.08709 235.785079 
L 171.71852 237.094893 
L 173.34995 238.958295 
L 174.98138 235.794681 
L 176.61281 237.304825 
L 179.875669 241.228051 
L 181.507099 244.279018 
L 183.138529 244.290675 
L 184.769959 245.735105 
L 186.401389 247.616383 
L 188.032819 249.027802 
L 189.664249 249.583393 
L 191.295678 247.360319 
L 192.927108 246.02088 
L 196.189968 241.389047 
L 197.821398 247.257665 
L 199.452828 246.789446 
L 202.715688 252.980115 
L 204.347117 255.522369 
L 205.978547 253.412707 
L 207.609977 255.408195 
L 209.241407 256.100472 
L 212.504267 255.005886 
L 214.135697 253.990195 
L 215.767127 255.535291 
L 217.398556 255.106228 
L 219.029986 256.395082 
L 220.661416 259.104427 
L 222.292846 259.326482 
L 223.924276 257.404666 
L 225.555706 257.510986 
L 228.818566 254.617672 
L 230.449995 255.281178 
L 232.081425 256.989763 
L 233.712855 257.79923 
L 235.344285 256.434123 
L 236.975715 254.140976 
L 238.607145 254.862267 
L 240.238575 258.641239 
L 241.870005 257.980127 
L 243.501434 259.701609 
L 245.132864 258.079008 
L 246.764294 257.236008 
L 248.395724 258.133396 
L 250.027154 250.580294 
L 251.658584 253.956127 
L 253.290014 260.580789 
L 254.921444 260.877707 
L 256.552873 263.281403 
L 258.184303 261.006096 
L 259.815733 263.40762 
L 261.447163 262.668847 
L 263.078593 261.642759 
L 264.710023 258.989785 
L 266.341453 258.149435 
L 267.972883 252.397271 
L 269.604312 256.99206 
L 271.235742 258.835897 
L 272.867172 262.770546 
L 274.498602 262.14647 
L 276.130032 263.010394 
L 277.761462 262.443358 
L 279.392892 263.323025 
L 281.024322 261.772737 
L 282.655751 263.41319 
L 284.287181 261.281628 
L 285.918611 265.331947 
L 287.550041 263.758344 
L 289.181471 263.291632 
L 290.812901 258.689051 
L 292.444331 262.9721 
L 294.075761 266.530158 
L 295.70719 266.612782 
L 297.33862 266.325855 
L 298.97005 263.887522 
L 300.60148 264.901464 
L 302.23291 266.868974 
L 303.86434 269.131171 
L 305.49577 270.174538 
L 307.1272 269.164667 
L 308.75863 269.318817 
L 310.390059 268.147847 
L 312.021489 267.716209 
L 313.652919 265.662974 
L 315.284349 267.665993 
L 316.915779 266.709443 
L 318.547209 268.136225 
L 320.178639 267.548077 
L 321.810069 268.689785 
L 323.441498 268.30846 
L 325.072928 269.248908 
L 326.704358 267.427728 
L 328.335788 268.151664 
L 329.967218 268.671845 
L 331.598648 268.609578 
L 333.230078 267.158633 
L 334.861508 267.677931 
L 336.492937 270.401978 
L 338.124367 267.851095 
L 339.755797 268.185088 
L 341.387227 264.995399 
L 343.018657 266.301506 
L 344.650087 269.353864 
L 346.281517 272.087188 
L 347.912947 273.295395 
L 349.544376 272.822666 
L 351.175806 271.835817 
L 352.807236 271.849398 
L 354.438666 271.223183 
L 356.070096 269.974412 
L 357.701526 270.145241 
L 359.332956 273.190734 
L 360.964386 272.518514 
L 362.595815 270.235315 
L 364.227245 271.164233 
L 365.858675 271.625645 
L 367.490105 274.438451 
L 369.121535 275.219024 
L 370.752965 275.054699 
L 372.384395 272.768528 
L 374.015825 272.376411 
L 375.647254 272.593446 
L 377.278684 270.763597 
L 378.910114 269.446498 
L 380.541544 265.642311 
L 382.172974 266.739023 
L 383.804404 269.992009 
L 385.435834 269.485208 
L 387.067264 272.69957 
L 388.698693 273.802532 
L 390.330123 275.495387 
L 391.961553 273.269823 
L 393.592983 273.776404 
L 395.224413 275.027652 
L 396.855843 273.017033 
L 398.487273 273.427586 
L 398.487273 273.427586 
" clip-path="url(#p755e25f410)" style="fill: none; stroke: #9467bd; stroke-width: 1.5; stroke-linecap: square"/>
   </g>
   <g id="line2d_17">
    <path d="M 73.832727 65.533536 
L 75.464157 76.283426 
L 77.095587 85.376606 
L 78.727017 86.791968 
L 80.358447 91.354714 
L 81.989877 102.072616 
L 83.621307 100.260197 
L 85.252736 103.298928 
L 86.884166 109.256087 
L 90.147026 125.220445 
L 91.778456 129.290699 
L 93.409886 121.820011 
L 95.041316 137.899765 
L 96.672746 145.602392 
L 98.304175 138.691373 
L 99.935605 155.400159 
L 101.567035 155.084448 
L 103.198465 157.441813 
L 104.829895 163.07204 
L 106.461325 173.568453 
L 108.092755 170.610922 
L 109.724185 177.07716 
L 111.355614 179.399135 
L 112.987044 184.772203 
L 114.618474 191.248034 
L 116.249904 193.998294 
L 117.881334 201.642108 
L 119.512764 202.906523 
L 121.144194 210.983842 
L 122.775624 212.527914 
L 124.407053 214.689166 
L 126.038483 212.08788 
L 127.669913 219.18931 
L 129.301343 214.689651 
L 130.932773 222.276979 
L 132.564203 224.794444 
L 134.195633 232.572832 
L 135.827063 234.535454 
L 137.458492 241.458691 
L 139.089922 245.878547 
L 140.721352 247.439335 
L 142.352782 251.273472 
L 143.984212 244.996865 
L 147.247072 249.993235 
L 148.878502 255.875699 
L 150.509931 253.789113 
L 152.141361 253.000811 
L 153.772791 255.569496 
L 155.404221 259.813388 
L 157.035651 260.699458 
L 158.667081 264.594013 
L 160.298511 268.18035 
L 161.929941 269.680102 
L 165.1928 267.73751 
L 166.82423 270.586131 
L 168.45566 270.023555 
L 170.08709 269.935695 
L 173.34995 272.853767 
L 174.98138 271.870298 
L 176.61281 271.383036 
L 178.244239 270.727715 
L 179.875669 268.822024 
L 181.507099 271.538811 
L 183.138529 264.676042 
L 184.769959 272.555221 
L 186.401389 274.120776 
L 188.032819 276.422428 
L 189.664249 279.430314 
L 191.295678 279.817255 
L 192.927108 280.534894 
L 194.558538 279.046796 
L 197.821398 282.113192 
L 199.452828 282.182455 
L 201.084258 282.534135 
L 202.715688 281.98067 
L 204.347117 283.009503 
L 205.978547 283.557039 
L 207.609977 284.980164 
L 209.241407 286.174123 
L 210.872837 286.029671 
L 212.504267 285.527327 
L 214.135697 284.878222 
L 215.767127 283.100393 
L 217.398556 281.769257 
L 219.029986 279.032107 
L 220.661416 276.835681 
L 222.292846 269.412834 
L 223.924276 277.100766 
L 225.555706 282.363622 
L 227.187136 285.886374 
L 228.818566 287.467654 
L 230.449995 287.65821 
L 232.081425 288.196334 
L 235.344285 288.112899 
L 236.975715 288.236129 
L 238.607145 287.092165 
L 241.870005 286.194059 
L 243.501434 286.235016 
L 245.132864 286.863458 
L 246.764294 285.57131 
L 248.395724 286.69493 
L 250.027154 286.012079 
L 251.658584 286.676284 
L 253.290014 287.08269 
L 254.921444 286.817812 
L 256.552873 286.857225 
L 258.184303 288.277768 
L 261.447163 289.311553 
L 263.078593 289.090323 
L 264.710023 288.321058 
L 266.341453 288.036667 
L 267.972883 287.127256 
L 269.604312 287.936131 
L 271.235742 287.970302 
L 272.867172 287.540427 
L 274.498602 285.830157 
L 276.130032 286.886387 
L 277.761462 286.501883 
L 279.392892 288.21145 
L 281.024322 288.967058 
L 282.655751 289.922356 
L 284.287181 288.800914 
L 285.918611 289.539401 
L 287.550041 286.848644 
L 289.181471 288.701282 
L 290.812901 289.364999 
L 292.444331 290.21825 
L 294.075761 290.769643 
L 295.70719 291.092695 
L 297.33862 290.768234 
L 298.97005 290.977136 
L 300.60148 290.981516 
L 302.23291 291.370477 
L 303.86434 290.518945 
L 305.49577 290.694464 
L 308.75863 289.066391 
L 310.390059 288.824496 
L 312.021489 288.857827 
L 313.652919 287.532279 
L 315.284349 287.01081 
L 316.915779 287.089583 
L 318.547209 289.625809 
L 320.178639 290.721381 
L 323.441498 291.930823 
L 325.072928 291.907493 
L 326.704358 292.050306 
L 328.335788 291.897135 
L 331.598648 291.939443 
L 334.861508 291.751404 
L 336.492937 292.153787 
L 338.124367 292.414026 
L 339.755797 291.595817 
L 341.387227 291.418764 
L 343.018657 290.777532 
L 344.650087 289.771344 
L 346.281517 287.783013 
L 347.912947 288.018366 
L 349.544376 285.95805 
L 351.175806 290.013457 
L 352.807236 290.207837 
L 354.438666 292.264984 
L 356.070096 292.427903 
L 357.701526 293.225845 
L 359.332956 293.727057 
L 360.964386 293.544418 
L 362.595815 293.194669 
L 365.858675 293.082717 
L 369.121535 293.245115 
L 370.752965 293.257136 
L 372.384395 292.742169 
L 374.015825 293.154225 
L 378.910114 292.693846 
L 380.541544 292.270282 
L 382.172974 291.169856 
L 383.804404 290.600925 
L 385.435834 289.58609 
L 387.067264 288.796288 
L 390.330123 288.100509 
L 391.961553 289.423583 
L 396.855843 291.541422 
L 398.487273 291.828004 
L 398.487273 291.828004 
" clip-path="url(#p755e25f410)" style="fill: none; stroke: #8c564b; stroke-width: 1.5; stroke-linecap: square"/>
   </g>
   <g id="line2d_18">
    <path d="M 73.832727 64.760594 
L 75.464157 66.845494 
L 77.095587 80.496978 
L 78.727017 86.29572 
L 80.358447 90.94984 
L 81.989877 94.33963 
L 83.621307 95.602829 
L 85.252736 103.484701 
L 86.884166 104.088237 
L 88.515596 109.338524 
L 90.147026 116.489461 
L 91.778456 119.935253 
L 93.409886 117.35591 
L 95.041316 122.132194 
L 96.672746 130.446102 
L 98.304175 132.11933 
L 99.935605 140.341786 
L 101.567035 145.526568 
L 103.198465 149.590297 
L 104.829895 150.726754 
L 106.461325 153.509695 
L 108.092755 145.629222 
L 109.724185 157.748411 
L 111.355614 156.545251 
L 112.987044 163.749467 
L 114.618474 163.577304 
L 116.249904 175.613001 
L 117.881334 172.925492 
L 119.512764 173.808891 
L 121.144194 184.611391 
L 122.775624 178.971666 
L 124.407053 188.668162 
L 126.038483 190.263483 
L 127.669913 196.758118 
L 129.301343 198.919031 
L 130.932773 204.008401 
L 132.564203 197.718304 
L 134.195633 201.500126 
L 135.827063 207.41187 
L 137.458492 207.903905 
L 139.089922 214.878122 
L 140.721352 211.14283 
L 142.352782 205.955069 
L 143.984212 203.925415 
L 145.615642 214.328289 
L 147.247072 226.642968 
L 150.509931 230.582926 
L 152.141361 233.485218 
L 155.404221 233.044911 
L 157.035651 233.828366 
L 158.667081 233.194324 
L 160.298511 232.103255 
L 161.929941 236.598884 
L 163.56137 237.92705 
L 165.1928 238.285284 
L 166.82423 237.56948 
L 168.45566 238.64004 
L 170.08709 241.716869 
L 171.71852 247.704709 
L 173.34995 248.692242 
L 174.98138 252.404482 
L 176.61281 254.088774 
L 178.244239 251.801613 
L 179.875669 252.434309 
L 181.507099 252.038636 
L 183.138529 253.125824 
L 184.769959 257.828977 
L 186.401389 257.652087 
L 189.664249 255.82445 
L 191.295678 260.527351 
L 192.927108 261.243728 
L 194.558538 262.917247 
L 196.189968 263.186892 
L 197.821398 259.793516 
L 201.084258 262.488748 
L 202.715688 261.22761 
L 204.347117 259.301726 
L 205.978547 260.641914 
L 207.609977 264.149212 
L 209.241407 265.567258 
L 210.872837 263.71596 
L 212.504267 264.021676 
L 214.135697 267.330439 
L 215.767127 267.567403 
L 217.398556 270.494021 
L 219.029986 270.949551 
L 220.661416 271.775912 
L 222.292846 271.795645 
L 223.924276 271.556951 
L 225.555706 272.372225 
L 227.187136 270.684925 
L 228.818566 271.820247 
L 230.449995 270.117829 
L 232.081425 268.086689 
L 233.712855 263.814238 
L 235.344285 263.148388 
L 236.975715 269.371297 
L 238.607145 272.419438 
L 240.238575 273.818023 
L 241.870005 276.295651 
L 243.501434 275.324903 
L 245.132864 274.493009 
L 246.764294 274.339938 
L 248.395724 276.59251 
L 250.027154 276.52077 
L 251.658584 277.34186 
L 253.290014 277.928149 
L 254.921444 277.29017 
L 256.552873 277.562583 
L 258.184303 277.40794 
L 259.815733 277.955138 
L 261.447163 277.890495 
L 263.078593 279.552121 
L 264.710023 279.262711 
L 266.341453 278.575882 
L 267.972883 276.638673 
L 272.867172 276.96038 
L 276.130032 275.672416 
L 277.761462 274.793526 
L 279.392892 276.191761 
L 281.024322 276.60972 
L 282.655751 279.390203 
L 284.287181 279.237452 
L 285.918611 281.106746 
L 287.550041 280.751682 
L 289.181471 280.834388 
L 290.812901 281.530952 
L 292.444331 282.614329 
L 294.075761 283.104774 
L 295.70719 281.767588 
L 297.33862 280.598055 
L 298.97005 280.748784 
L 300.60148 281.958838 
L 302.23291 282.072792 
L 303.86434 281.551593 
L 305.49577 282.287744 
L 307.1272 282.1982 
L 308.75863 282.905791 
L 310.390059 282.952876 
L 312.021489 283.447394 
L 313.652919 283.502922 
L 316.915779 283.2915 
L 318.547209 283.661448 
L 320.178639 282.797564 
L 321.810069 281.403163 
L 323.441498 282.348042 
L 325.072928 282.45824 
L 326.704358 284.072435 
L 328.335788 284.332032 
L 329.967218 283.323615 
L 331.598648 284.190163 
L 333.230078 284.516483 
L 334.861508 284.2414 
L 336.492937 283.425918 
L 338.124367 284.100428 
L 339.755797 283.064509 
L 341.387227 284.438778 
L 344.650087 281.456458 
L 347.912947 283.554573 
L 349.544376 282.383731 
L 351.175806 284.612416 
L 352.807236 285.109732 
L 354.438666 285.197769 
L 356.070096 286.042128 
L 357.701526 286.260986 
L 359.332956 285.276264 
L 360.964386 285.469656 
L 364.227245 285.316651 
L 365.858675 285.628056 
L 367.490105 286.750648 
L 369.121535 285.215765 
L 370.752965 283.417935 
L 372.384395 277.204712 
L 374.015825 279.359605 
L 377.278684 284.290636 
L 378.910114 283.60874 
L 380.541544 285.407773 
L 382.172974 285.812837 
L 383.804404 286.73196 
L 385.435834 287.811697 
L 387.067264 287.890967 
L 388.698693 287.56786 
L 390.330123 288.023134 
L 391.961553 288.164307 
L 393.592983 288.031422 
L 395.224413 288.702382 
L 396.855843 288.334389 
L 398.487273 288.63648 
L 398.487273 288.63648 
" clip-path="url(#p755e25f410)" style="fill: none; stroke: #e377c2; stroke-width: 1.5; stroke-linecap: square"/>
   </g>
   <g id="line2d_19">
    <path d="M 73.832727 53.568 
L 75.464157 71.151986 
L 77.095587 76.657145 
L 78.727017 80.528037 
L 80.358447 85.872069 
L 81.989877 91.831876 
L 83.621307 93.992604 
L 85.252736 91.47594 
L 86.884166 95.76965 
L 88.515596 105.472304 
L 90.147026 108.272074 
L 91.778456 113.194512 
L 93.409886 113.218066 
L 95.041316 110.856051 
L 96.672746 123.900288 
L 98.304175 129.603142 
L 99.935605 136.604613 
L 101.567035 138.588348 
L 103.198465 125.147585 
L 104.829895 135.975974 
L 106.461325 138.048777 
L 108.092755 138.483386 
L 109.724185 147.518765 
L 111.355614 158.716096 
L 112.987044 166.219629 
L 114.618474 168.402533 
L 116.249904 177.570693 
L 117.881334 170.330557 
L 119.512764 177.2191 
L 121.144194 181.438949 
L 122.775624 182.008822 
L 124.407053 185.255537 
L 126.038483 185.05316 
L 127.669913 192.166244 
L 129.301343 186.446886 
L 130.932773 196.430289 
L 132.564203 201.249403 
L 134.195633 196.793209 
L 135.827063 201.48961 
L 137.458492 204.063766 
L 140.721352 217.332422 
L 142.352782 218.444148 
L 143.984212 216.345328 
L 145.615642 212.894134 
L 147.247072 209.703169 
L 148.878502 211.303768 
L 150.509931 220.522397 
L 152.141361 226.730789 
L 153.772791 229.952032 
L 155.404221 233.901408 
L 157.035651 234.515681 
L 158.667081 232.985086 
L 160.298511 233.6296 
L 161.929941 239.211183 
L 163.56137 237.496497 
L 165.1928 234.46152 
L 166.82423 237.780419 
L 168.45566 245.124428 
L 170.08709 248.652766 
L 171.71852 243.725936 
L 173.34995 247.262265 
L 174.98138 249.402079 
L 176.61281 239.845244 
L 178.244239 245.70354 
L 179.875669 254.05936 
L 181.507099 249.754043 
L 183.138529 256.038928 
L 184.769959 252.845128 
L 186.401389 246.961832 
L 188.032819 245.681703 
L 189.664249 235.149551 
L 191.295678 237.270106 
L 192.927108 246.266524 
L 194.558538 249.710842 
L 196.189968 250.626053 
L 197.821398 257.172192 
L 199.452828 262.809986 
L 201.084258 266.440816 
L 204.347117 267.809194 
L 205.978547 265.065208 
L 207.609977 265.489321 
L 209.241407 260.800038 
L 210.872837 261.084828 
L 212.504267 261.702806 
L 214.135697 263.370214 
L 215.767127 263.333721 
L 217.398556 268.076586 
L 219.029986 267.391975 
L 220.661416 265.216052 
L 222.292846 263.318511 
L 223.924276 266.785631 
L 225.555706 270.610464 
L 227.187136 271.210373 
L 228.818566 272.815578 
L 230.449995 272.676661 
L 232.081425 273.322142 
L 233.712855 275.499397 
L 235.344285 275.849706 
L 236.975715 272.625673 
L 238.607145 272.548513 
L 240.238575 270.949667 
L 241.870005 269.802203 
L 243.501434 273.058111 
L 245.132864 275.675962 
L 246.764294 274.320972 
L 248.395724 271.516372 
L 250.027154 267.850922 
L 251.658584 273.790827 
L 253.290014 269.575594 
L 254.921444 269.89431 
L 256.552873 271.933138 
L 258.184303 273.501242 
L 259.815733 277.056187 
L 261.447163 279.359943 
L 263.078593 276.083644 
L 264.710023 269.052442 
L 266.341453 274.921479 
L 267.972883 277.208315 
L 269.604312 278.563338 
L 271.235742 276.003799 
L 272.867172 276.883523 
L 274.498602 275.008618 
L 276.130032 275.664028 
L 277.761462 274.092128 
L 279.392892 274.087784 
L 281.024322 276.003525 
L 282.655751 276.735174 
L 284.287181 278.193432 
L 285.918611 280.165083 
L 287.550041 280.140227 
L 289.181471 276.029607 
L 290.812901 275.520606 
L 292.444331 278.967457 
L 294.075761 281.28224 
L 295.70719 282.02124 
L 297.33862 278.284153 
L 298.97005 277.422313 
L 300.60148 277.701437 
L 302.23291 281.85219 
L 303.86434 281.383681 
L 305.49577 281.479254 
L 307.1272 282.767762 
L 308.75863 284.529924 
L 310.390059 284.843966 
L 312.021489 283.096664 
L 313.652919 282.268178 
L 315.284349 280.709894 
L 316.915779 281.735229 
L 318.547209 277.895339 
L 320.178639 264.217751 
L 321.810069 270.560632 
L 323.441498 275.266673 
L 325.072928 272.476054 
L 326.704358 276.672145 
L 328.335788 276.061694 
L 329.967218 278.694787 
L 331.598648 281.740934 
L 333.230078 284.259165 
L 334.861508 283.892015 
L 336.492937 285.337779 
L 338.124367 286.251656 
L 339.755797 286.469025 
L 341.387227 286.222584 
L 343.018657 286.4581 
L 344.650087 287.501417 
L 346.281517 288.053035 
L 347.912947 287.246694 
L 349.544376 285.896792 
L 351.175806 280.079127 
L 352.807236 284.416743 
L 354.438666 286.59167 
L 356.070096 286.665297 
L 359.332956 283.100354 
L 362.595815 284.707519 
L 364.227245 285.963372 
L 365.858675 284.755839 
L 367.490105 284.964208 
L 369.121535 285.642279 
L 370.752965 283.570096 
L 372.384395 284.030495 
L 374.015825 283.997998 
L 375.647254 285.301776 
L 378.910114 287.005135 
L 380.541544 284.822894 
L 382.172974 285.069916 
L 383.804404 283.704566 
L 385.435834 279.022567 
L 387.067264 277.879248 
L 388.698693 277.174051 
L 390.330123 279.733318 
L 391.961553 277.075231 
L 393.592983 275.716737 
L 395.224413 274.70112 
L 396.855843 274.236642 
L 398.487273 280.369989 
L 398.487273 280.369989 
" clip-path="url(#p755e25f410)" style="fill: none; stroke: #7f7f7f; stroke-width: 1.5; stroke-linecap: square"/>
   </g>
   <g id="patch_3">
    <path d="M 57.6 307.584 
L 57.6 41.472 
" style="fill: none; stroke: #000000; stroke-width: 0.8; stroke-linejoin: miter; stroke-linecap: square"/>
   </g>
   <g id="patch_4">
    <path d="M 414.72 307.584 
L 414.72 41.472 
" style="fill: none; stroke: #000000; stroke-width: 0.8; stroke-linejoin: miter; stroke-linecap: square"/>
   </g>
   <g id="patch_5">
    <path d="M 57.6 307.584 
L 414.72 307.584 
" style="fill: none; stroke: #000000; stroke-width: 0.8; stroke-linejoin: miter; stroke-linecap: square"/>
   </g>
   <g id="patch_6">
    <path d="M 57.6 41.472 
L 414.72 41.472 
" style="fill: none; stroke: #000000; stroke-width: 0.8; stroke-linejoin: miter; stroke-linecap: square"/>
   </g>
   <g id="text_14">
    <!-- loss compare -->
    <g transform="translate(173.175 35.472) scale(0.24 -0.24)">
     <defs>
      <path id="TimesNewRomanPSMT-20" transform="scale(0.015625)"/>
      <path id="TimesNewRomanPSMT-6d" d="M 1050 2338 
Q 1363 2650 1419 2697 
Q 1559 2816 1721 2881 
Q 1884 2947 2044 2947 
Q 2313 2947 2506 2790 
Q 2700 2634 2766 2338 
Q 3088 2713 3309 2830 
Q 3531 2947 3766 2947 
Q 3994 2947 4170 2830 
Q 4347 2713 4450 2447 
Q 4519 2266 4519 1878 
L 4519 647 
Q 4519 378 4559 278 
Q 4591 209 4675 161 
Q 4759 113 4950 113 
L 4950 0 
L 3538 0 
L 3538 113 
L 3597 113 
Q 3781 113 3884 184 
Q 3956 234 3988 344 
Q 4000 397 4000 647 
L 4000 1878 
Q 4000 2228 3916 2372 
Q 3794 2572 3525 2572 
Q 3359 2572 3192 2489 
Q 3025 2406 2788 2181 
L 2781 2147 
L 2788 2013 
L 2788 647 
Q 2788 353 2820 281 
Q 2853 209 2943 161 
Q 3034 113 3253 113 
L 3253 0 
L 1806 0 
L 1806 113 
Q 2044 113 2133 169 
Q 2222 225 2256 338 
Q 2272 391 2272 647 
L 2272 1878 
Q 2272 2228 2169 2381 
Q 2031 2581 1784 2581 
Q 1616 2581 1450 2491 
Q 1191 2353 1050 2181 
L 1050 647 
Q 1050 366 1089 281 
Q 1128 197 1204 155 
Q 1281 113 1516 113 
L 1516 0 
L 100 0 
L 100 113 
Q 297 113 375 155 
Q 453 197 493 289 
Q 534 381 534 647 
L 534 1741 
Q 534 2213 506 2350 
Q 484 2453 437 2492 
Q 391 2531 309 2531 
Q 222 2531 100 2484 
L 53 2597 
L 916 2947 
L 1050 2947 
L 1050 2338 
z
" transform="scale(0.015625)"/>
      <path id="TimesNewRomanPSMT-61" d="M 1822 413 
Q 1381 72 1269 19 
Q 1100 -59 909 -59 
Q 613 -59 420 144 
Q 228 347 228 678 
Q 228 888 322 1041 
Q 450 1253 767 1440 
Q 1084 1628 1822 1897 
L 1822 2009 
Q 1822 2438 1686 2597 
Q 1550 2756 1291 2756 
Q 1094 2756 978 2650 
Q 859 2544 859 2406 
L 866 2225 
Q 866 2081 792 2003 
Q 719 1925 600 1925 
Q 484 1925 411 2006 
Q 338 2088 338 2228 
Q 338 2497 613 2722 
Q 888 2947 1384 2947 
Q 1766 2947 2009 2819 
Q 2194 2722 2281 2516 
Q 2338 2381 2338 1966 
L 2338 994 
Q 2338 584 2353 492 
Q 2369 400 2405 369 
Q 2441 338 2488 338 
Q 2538 338 2575 359 
Q 2641 400 2828 588 
L 2828 413 
Q 2478 -56 2159 -56 
Q 2006 -56 1915 50 
Q 1825 156 1822 413 
z
M 1822 616 
L 1822 1706 
Q 1350 1519 1213 1441 
Q 966 1303 859 1153 
Q 753 1003 753 825 
Q 753 600 887 451 
Q 1022 303 1197 303 
Q 1434 303 1822 616 
z
" transform="scale(0.015625)"/>
      <path id="TimesNewRomanPSMT-72" d="M 1038 2947 
L 1038 2303 
Q 1397 2947 1775 2947 
Q 1947 2947 2059 2842 
Q 2172 2738 2172 2600 
Q 2172 2478 2090 2393 
Q 2009 2309 1897 2309 
Q 1788 2309 1652 2417 
Q 1516 2525 1450 2525 
Q 1394 2525 1328 2463 
Q 1188 2334 1038 2041 
L 1038 669 
Q 1038 431 1097 309 
Q 1138 225 1241 169 
Q 1344 113 1538 113 
L 1538 0 
L 72 0 
L 72 113 
Q 291 113 397 181 
Q 475 231 506 341 
Q 522 394 522 644 
L 522 1753 
Q 522 2253 501 2348 
Q 481 2444 426 2487 
Q 372 2531 291 2531 
Q 194 2531 72 2484 
L 41 2597 
L 906 2947 
L 1038 2947 
z
" transform="scale(0.015625)"/>
     </defs>
     <use xlink:href="#TimesNewRomanPSMT-6c"/>
     <use xlink:href="#TimesNewRomanPSMT-6f" x="27.783203"/>
     <use xlink:href="#TimesNewRomanPSMT-73" x="77.783203"/>
     <use xlink:href="#TimesNewRomanPSMT-73" x="116.699219"/>
     <use xlink:href="#TimesNewRomanPSMT-20" x="155.615234"/>
     <use xlink:href="#TimesNewRomanPSMT-63" x="180.615234"/>
     <use xlink:href="#TimesNewRomanPSMT-6f" x="225"/>
     <use xlink:href="#TimesNewRomanPSMT-6d" x="275"/>
     <use xlink:href="#TimesNewRomanPSMT-70" x="352.783203"/>
     <use xlink:href="#TimesNewRomanPSMT-61" x="402.783203"/>
     <use xlink:href="#TimesNewRomanPSMT-72" x="447.167969"/>
     <use xlink:href="#TimesNewRomanPSMT-65" x="480.46875"/>
    </g>
   </g>
   <g id="legend_1">
    <g id="patch_7">
     <path d="M 272.604375 186.807 
L 406.32 186.807 
Q 408.72 186.807 408.72 184.407 
L 408.72 49.872 
Q 408.72 47.472 406.32 47.472 
L 272.604375 47.472 
Q 270.204375 47.472 270.204375 49.872 
L 270.204375 184.407 
Q 270.204375 186.807 272.604375 186.807 
z
" style="fill: #ffffff; opacity: 0.8; stroke: #cccccc; stroke-linejoin: miter"/>
    </g>
    <g id="line2d_20">
     <path d="M 275.004375 56.472 
L 287.004375 56.472 
L 299.004375 56.472 
" style="fill: none; stroke: #1f77b4; stroke-width: 1.5; stroke-linecap: square"/>
    </g>
    <g id="text_15">
     <!-- Bilstm -->
     <g transform="translate(308.604375 60.672) scale(0.12 -0.12)">
      <defs>
       <path id="TimesNewRomanPSMT-42" d="M 2956 2163 
Q 3397 2069 3616 1863 
Q 3919 1575 3919 1159 
Q 3919 844 3719 555 
Q 3519 266 3170 133 
Q 2822 0 2106 0 
L 106 0 
L 106 116 
L 266 116 
Q 531 116 647 284 
Q 719 394 719 750 
L 719 3488 
Q 719 3881 628 3984 
Q 506 4122 266 4122 
L 106 4122 
L 106 4238 
L 1938 4238 
Q 2450 4238 2759 4163 
Q 3228 4050 3475 3764 
Q 3722 3478 3722 3106 
Q 3722 2788 3528 2536 
Q 3334 2284 2956 2163 
z
M 1319 2331 
Q 1434 2309 1582 2298 
Q 1731 2288 1909 2288 
Q 2366 2288 2595 2386 
Q 2825 2484 2947 2687 
Q 3069 2891 3069 3131 
Q 3069 3503 2766 3765 
Q 2463 4028 1881 4028 
Q 1569 4028 1319 3959 
L 1319 2331 
z
M 1319 306 
Q 1681 222 2034 222 
Q 2600 222 2897 476 
Q 3194 731 3194 1106 
Q 3194 1353 3059 1581 
Q 2925 1809 2622 1940 
Q 2319 2072 1872 2072 
Q 1678 2072 1540 2065 
Q 1403 2059 1319 2044 
L 1319 306 
z
" transform="scale(0.015625)"/>
       <path id="TimesNewRomanPSMT-69" d="M 928 4444 
Q 1059 4444 1151 4351 
Q 1244 4259 1244 4128 
Q 1244 3997 1151 3903 
Q 1059 3809 928 3809 
Q 797 3809 703 3903 
Q 609 3997 609 4128 
Q 609 4259 701 4351 
Q 794 4444 928 4444 
z
M 1188 2947 
L 1188 647 
Q 1188 378 1227 289 
Q 1266 200 1342 156 
Q 1419 113 1622 113 
L 1622 0 
L 231 0 
L 231 113 
Q 441 113 512 153 
Q 584 194 626 287 
Q 669 381 669 647 
L 669 1750 
Q 669 2216 641 2353 
Q 619 2453 572 2492 
Q 525 2531 444 2531 
Q 356 2531 231 2484 
L 188 2597 
L 1050 2947 
L 1188 2947 
z
" transform="scale(0.015625)"/>
       <path id="TimesNewRomanPSMT-74" d="M 1031 3803 
L 1031 2863 
L 1700 2863 
L 1700 2644 
L 1031 2644 
L 1031 788 
Q 1031 509 1111 412 
Q 1191 316 1316 316 
Q 1419 316 1516 380 
Q 1613 444 1666 569 
L 1788 569 
Q 1678 263 1478 108 
Q 1278 -47 1066 -47 
Q 922 -47 784 33 
Q 647 113 581 261 
Q 516 409 516 719 
L 516 2644 
L 63 2644 
L 63 2747 
Q 234 2816 414 2980 
Q 594 3144 734 3369 
Q 806 3488 934 3803 
L 1031 3803 
z
" transform="scale(0.015625)"/>
      </defs>
      <use xlink:href="#TimesNewRomanPSMT-42"/>
      <use xlink:href="#TimesNewRomanPSMT-69" x="66.699219"/>
      <use xlink:href="#TimesNewRomanPSMT-6c" x="94.482422"/>
      <use xlink:href="#TimesNewRomanPSMT-73" x="122.265625"/>
      <use xlink:href="#TimesNewRomanPSMT-74" x="161.181641"/>
      <use xlink:href="#TimesNewRomanPSMT-6d" x="188.964844"/>
     </g>
    </g>
    <g id="line2d_21">
     <path d="M 275.004375 73.438875 
L 287.004375 73.438875 
L 299.004375 73.438875 
" style="fill: none; stroke: #ff7f0e; stroke-width: 1.5; stroke-linecap: square"/>
    </g>
    <g id="text_16">
     <!-- EN-DE -->
     <g transform="translate(308.604375 77.638875) scale(0.12 -0.12)">
      <defs>
       <path id="TimesNewRomanPSMT-45" d="M 1338 4006 
L 1338 2331 
L 2269 2331 
Q 2631 2331 2753 2441 
Q 2916 2584 2934 2947 
L 3050 2947 
L 3050 1472 
L 2934 1472 
Q 2891 1781 2847 1869 
Q 2791 1978 2662 2040 
Q 2534 2103 2269 2103 
L 1338 2103 
L 1338 706 
Q 1338 425 1363 364 
Q 1388 303 1450 267 
Q 1513 231 1688 231 
L 2406 231 
Q 2766 231 2928 281 
Q 3091 331 3241 478 
Q 3434 672 3638 1063 
L 3763 1063 
L 3397 0 
L 131 0 
L 131 116 
L 281 116 
Q 431 116 566 188 
Q 666 238 702 338 
Q 738 438 738 747 
L 738 3500 
Q 738 3903 656 3997 
Q 544 4122 281 4122 
L 131 4122 
L 131 4238 
L 3397 4238 
L 3444 3309 
L 3322 3309 
Q 3256 3644 3176 3769 
Q 3097 3894 2941 3959 
Q 2816 4006 2500 4006 
L 1338 4006 
z
" transform="scale(0.015625)"/>
       <path id="TimesNewRomanPSMT-4e" d="M -84 4238 
L 1066 4238 
L 3656 1059 
L 3656 3503 
Q 3656 3894 3569 3991 
Q 3453 4122 3203 4122 
L 3056 4122 
L 3056 4238 
L 4531 4238 
L 4531 4122 
L 4381 4122 
Q 4113 4122 4000 3959 
Q 3931 3859 3931 3503 
L 3931 -69 
L 3819 -69 
L 1025 3344 
L 1025 734 
Q 1025 344 1109 247 
Q 1228 116 1475 116 
L 1625 116 
L 1625 0 
L 150 0 
L 150 116 
L 297 116 
Q 569 116 681 278 
Q 750 378 750 734 
L 750 3681 
Q 566 3897 470 3965 
Q 375 4034 191 4094 
Q 100 4122 -84 4122 
L -84 4238 
z
" transform="scale(0.015625)"/>
       <path id="TimesNewRomanPSMT-2d" d="M 259 1672 
L 1875 1672 
L 1875 1200 
L 259 1200 
L 259 1672 
z
" transform="scale(0.015625)"/>
       <path id="TimesNewRomanPSMT-44" d="M 109 0 
L 109 116 
L 269 116 
Q 538 116 650 288 
Q 719 391 719 750 
L 719 3488 
Q 719 3884 631 3984 
Q 509 4122 269 4122 
L 109 4122 
L 109 4238 
L 1834 4238 
Q 2784 4238 3279 4022 
Q 3775 3806 4076 3303 
Q 4378 2800 4378 2141 
Q 4378 1256 3841 663 
Q 3238 0 2003 0 
L 109 0 
z
M 1319 306 
Q 1716 219 1984 219 
Q 2709 219 3187 728 
Q 3666 1238 3666 2109 
Q 3666 2988 3187 3494 
Q 2709 4000 1959 4000 
Q 1678 4000 1319 3909 
L 1319 306 
z
" transform="scale(0.015625)"/>
      </defs>
      <use xlink:href="#TimesNewRomanPSMT-45"/>
      <use xlink:href="#TimesNewRomanPSMT-4e" x="61.083984"/>
      <use xlink:href="#TimesNewRomanPSMT-2d" x="133.300781"/>
      <use xlink:href="#TimesNewRomanPSMT-44" x="166.601562"/>
      <use xlink:href="#TimesNewRomanPSMT-45" x="238.818359"/>
     </g>
    </g>
    <g id="line2d_22">
     <path d="M 275.004375 90.40575 
L 287.004375 90.40575 
L 299.004375 90.40575 
" style="fill: none; stroke: #2ca02c; stroke-width: 1.5; stroke-linecap: square"/>
    </g>
    <g id="text_17">
     <!-- Gru -->
     <g transform="translate(308.604375 94.60575) scale(0.12 -0.12)">
      <defs>
       <path id="TimesNewRomanPSMT-47" d="M 3928 4334 
L 4038 2997 
L 3928 2997 
Q 3763 3497 3500 3750 
Q 3122 4116 2528 4116 
Q 1719 4116 1297 3475 
Q 944 2934 944 2188 
Q 944 1581 1178 1081 
Q 1413 581 1792 348 
Q 2172 116 2572 116 
Q 2806 116 3025 175 
Q 3244 234 3447 350 
L 3447 1575 
Q 3447 1894 3398 1992 
Q 3350 2091 3248 2142 
Q 3147 2194 2891 2194 
L 2891 2313 
L 4531 2313 
L 4531 2194 
L 4453 2194 
Q 4209 2194 4119 2031 
Q 4056 1916 4056 1575 
L 4056 278 
Q 3697 84 3347 -6 
Q 2997 -97 2569 -97 
Q 1341 -97 703 691 
Q 225 1281 225 2053 
Q 225 2613 494 3125 
Q 813 3734 1369 4063 
Q 1834 4334 2469 4334 
Q 2700 4334 2889 4296 
Q 3078 4259 3425 4131 
Q 3600 4066 3659 4066 
Q 3719 4066 3761 4120 
Q 3803 4175 3813 4334 
L 3928 4334 
z
" transform="scale(0.015625)"/>
       <path id="TimesNewRomanPSMT-75" d="M 2709 2863 
L 2709 1128 
Q 2709 631 2732 520 
Q 2756 409 2807 365 
Q 2859 322 2928 322 
Q 3025 322 3147 375 
L 3191 266 
L 2334 -88 
L 2194 -88 
L 2194 519 
Q 1825 119 1631 15 
Q 1438 -88 1222 -88 
Q 981 -88 804 51 
Q 628 191 559 409 
Q 491 628 491 1028 
L 491 2306 
Q 491 2509 447 2587 
Q 403 2666 317 2708 
Q 231 2750 6 2747 
L 6 2863 
L 1009 2863 
L 1009 947 
Q 1009 547 1148 422 
Q 1288 297 1484 297 
Q 1619 297 1789 381 
Q 1959 466 2194 703 
L 2194 2325 
Q 2194 2569 2105 2655 
Q 2016 2741 1734 2747 
L 1734 2863 
L 2709 2863 
z
" transform="scale(0.015625)"/>
      </defs>
      <use xlink:href="#TimesNewRomanPSMT-47"/>
      <use xlink:href="#TimesNewRomanPSMT-72" x="72.216797"/>
      <use xlink:href="#TimesNewRomanPSMT-75" x="105.517578"/>
     </g>
    </g>
    <g id="line2d_23">
     <path d="M 275.004375 107.372625 
L 287.004375 107.372625 
L 299.004375 107.372625 
" style="fill: none; stroke: #d62728; stroke-width: 1.5; stroke-linecap: square"/>
    </g>
    <g id="text_18">
     <!-- Lstm -->
     <g transform="translate(308.604375 111.572625) scale(0.12 -0.12)">
      <defs>
       <path id="TimesNewRomanPSMT-4c" d="M 3669 1172 
L 3772 1150 
L 3409 0 
L 128 0 
L 128 116 
L 288 116 
Q 556 116 672 291 
Q 738 391 738 753 
L 738 3488 
Q 738 3884 650 3984 
Q 528 4122 288 4122 
L 128 4122 
L 128 4238 
L 2047 4238 
L 2047 4122 
Q 1709 4125 1573 4059 
Q 1438 3994 1388 3894 
Q 1338 3794 1338 3416 
L 1338 753 
Q 1338 494 1388 397 
Q 1425 331 1503 300 
Q 1581 269 1991 269 
L 2300 269 
Q 2788 269 2984 341 
Q 3181 413 3343 595 
Q 3506 778 3669 1172 
z
" transform="scale(0.015625)"/>
      </defs>
      <use xlink:href="#TimesNewRomanPSMT-4c"/>
      <use xlink:href="#TimesNewRomanPSMT-73" x="61.083984"/>
      <use xlink:href="#TimesNewRomanPSMT-74" x="100"/>
      <use xlink:href="#TimesNewRomanPSMT-6d" x="127.783203"/>
     </g>
    </g>
    <g id="line2d_24">
     <path d="M 275.004375 124.3395 
L 287.004375 124.3395 
L 299.004375 124.3395 
" style="fill: none; stroke: #9467bd; stroke-width: 1.5; stroke-linecap: square"/>
    </g>
    <g id="text_19">
     <!-- Rnn -->
     <g transform="translate(308.604375 128.5395) scale(0.12 -0.12)">
      <defs>
       <path id="TimesNewRomanPSMT-52" d="M 4325 0 
L 3194 0 
L 1759 1981 
Q 1600 1975 1500 1975 
Q 1459 1975 1412 1976 
Q 1366 1978 1316 1981 
L 1316 750 
Q 1316 350 1403 253 
Q 1522 116 1759 116 
L 1925 116 
L 1925 0 
L 109 0 
L 109 116 
L 269 116 
Q 538 116 653 291 
Q 719 388 719 750 
L 719 3488 
Q 719 3888 631 3984 
Q 509 4122 269 4122 
L 109 4122 
L 109 4238 
L 1653 4238 
Q 2328 4238 2648 4139 
Q 2969 4041 3192 3777 
Q 3416 3513 3416 3147 
Q 3416 2756 3161 2468 
Q 2906 2181 2372 2063 
L 3247 847 
Q 3547 428 3762 290 
Q 3978 153 4325 116 
L 4325 0 
z
M 1316 2178 
Q 1375 2178 1419 2176 
Q 1463 2175 1491 2175 
Q 2097 2175 2405 2437 
Q 2713 2700 2713 3106 
Q 2713 3503 2464 3751 
Q 2216 4000 1806 4000 
Q 1625 4000 1316 3941 
L 1316 2178 
z
" transform="scale(0.015625)"/>
       <path id="TimesNewRomanPSMT-6e" d="M 1034 2341 
Q 1538 2947 1994 2947 
Q 2228 2947 2397 2830 
Q 2566 2713 2666 2444 
Q 2734 2256 2734 1869 
L 2734 647 
Q 2734 375 2778 278 
Q 2813 200 2889 156 
Q 2966 113 3172 113 
L 3172 0 
L 1756 0 
L 1756 113 
L 1816 113 
Q 2016 113 2095 173 
Q 2175 234 2206 353 
Q 2219 400 2219 647 
L 2219 1819 
Q 2219 2209 2117 2386 
Q 2016 2563 1775 2563 
Q 1403 2563 1034 2156 
L 1034 647 
Q 1034 356 1069 288 
Q 1113 197 1189 155 
Q 1266 113 1500 113 
L 1500 0 
L 84 0 
L 84 113 
L 147 113 
Q 366 113 442 223 
Q 519 334 519 647 
L 519 1709 
Q 519 2225 495 2337 
Q 472 2450 423 2490 
Q 375 2531 294 2531 
Q 206 2531 84 2484 
L 38 2597 
L 900 2947 
L 1034 2947 
L 1034 2341 
z
" transform="scale(0.015625)"/>
      </defs>
      <use xlink:href="#TimesNewRomanPSMT-52"/>
      <use xlink:href="#TimesNewRomanPSMT-6e" x="66.699219"/>
      <use xlink:href="#TimesNewRomanPSMT-6e" x="116.699219"/>
     </g>
    </g>
    <g id="line2d_25">
     <path d="M 275.004375 141.306375 
L 287.004375 141.306375 
L 299.004375 141.306375 
" style="fill: none; stroke: #8c564b; stroke-width: 1.5; stroke-linecap: square"/>
    </g>
    <g id="text_20">
     <!-- Transformer-Bilstm -->
     <g transform="translate(308.604375 145.506375) scale(0.12 -0.12)">
      <defs>
       <path id="TimesNewRomanPSMT-54" d="M 3703 4238 
L 3750 3244 
L 3631 3244 
Q 3597 3506 3538 3619 
Q 3441 3800 3280 3886 
Q 3119 3972 2856 3972 
L 2259 3972 
L 2259 734 
Q 2259 344 2344 247 
Q 2463 116 2709 116 
L 2856 116 
L 2856 0 
L 1059 0 
L 1059 116 
L 1209 116 
Q 1478 116 1591 278 
Q 1659 378 1659 734 
L 1659 3972 
L 1150 3972 
Q 853 3972 728 3928 
Q 566 3869 450 3700 
Q 334 3531 313 3244 
L 194 3244 
L 244 4238 
L 3703 4238 
z
" transform="scale(0.015625)"/>
       <path id="TimesNewRomanPSMT-66" d="M 1319 2638 
L 1319 756 
Q 1319 356 1406 250 
Q 1522 113 1716 113 
L 1975 113 
L 1975 0 
L 266 0 
L 266 113 
L 394 113 
Q 519 113 622 175 
Q 725 238 764 344 
Q 803 450 803 756 
L 803 2638 
L 247 2638 
L 247 2863 
L 803 2863 
L 803 3050 
Q 803 3478 940 3775 
Q 1078 4072 1361 4255 
Q 1644 4438 1997 4438 
Q 2325 4438 2600 4225 
Q 2781 4084 2781 3909 
Q 2781 3816 2700 3733 
Q 2619 3650 2525 3650 
Q 2453 3650 2373 3701 
Q 2294 3753 2178 3923 
Q 2063 4094 1966 4153 
Q 1869 4213 1750 4213 
Q 1606 4213 1506 4136 
Q 1406 4059 1362 3898 
Q 1319 3738 1319 3069 
L 1319 2863 
L 2056 2863 
L 2056 2638 
L 1319 2638 
z
" transform="scale(0.015625)"/>
      </defs>
      <use xlink:href="#TimesNewRomanPSMT-54"/>
      <use xlink:href="#TimesNewRomanPSMT-72" x="57.583984"/>
      <use xlink:href="#TimesNewRomanPSMT-61" x="90.884766"/>
      <use xlink:href="#TimesNewRomanPSMT-6e" x="135.269531"/>
      <use xlink:href="#TimesNewRomanPSMT-73" x="185.269531"/>
      <use xlink:href="#TimesNewRomanPSMT-66" x="224.185547"/>
      <use xlink:href="#TimesNewRomanPSMT-6f" x="257.486328"/>
      <use xlink:href="#TimesNewRomanPSMT-72" x="307.486328"/>
      <use xlink:href="#TimesNewRomanPSMT-6d" x="340.787109"/>
      <use xlink:href="#TimesNewRomanPSMT-65" x="418.570312"/>
      <use xlink:href="#TimesNewRomanPSMT-72" x="462.955078"/>
      <use xlink:href="#TimesNewRomanPSMT-2d" x="494.255859"/>
      <use xlink:href="#TimesNewRomanPSMT-42" x="527.556641"/>
      <use xlink:href="#TimesNewRomanPSMT-69" x="594.255859"/>
      <use xlink:href="#TimesNewRomanPSMT-6c" x="622.039062"/>
      <use xlink:href="#TimesNewRomanPSMT-73" x="649.822266"/>
      <use xlink:href="#TimesNewRomanPSMT-74" x="688.738281"/>
      <use xlink:href="#TimesNewRomanPSMT-6d" x="716.521484"/>
     </g>
    </g>
    <g id="line2d_26">
     <path d="M 275.004375 158.27325 
L 287.004375 158.27325 
L 299.004375 158.27325 
" style="fill: none; stroke: #e377c2; stroke-width: 1.5; stroke-linecap: square"/>
    </g>
    <g id="text_21">
     <!-- Transformer-Lstm -->
     <g transform="translate(308.604375 162.47325) scale(0.12 -0.12)">
      <use xlink:href="#TimesNewRomanPSMT-54"/>
      <use xlink:href="#TimesNewRomanPSMT-72" x="57.583984"/>
      <use xlink:href="#TimesNewRomanPSMT-61" x="90.884766"/>
      <use xlink:href="#TimesNewRomanPSMT-6e" x="135.269531"/>
      <use xlink:href="#TimesNewRomanPSMT-73" x="185.269531"/>
      <use xlink:href="#TimesNewRomanPSMT-66" x="224.185547"/>
      <use xlink:href="#TimesNewRomanPSMT-6f" x="257.486328"/>
      <use xlink:href="#TimesNewRomanPSMT-72" x="307.486328"/>
      <use xlink:href="#TimesNewRomanPSMT-6d" x="340.787109"/>
      <use xlink:href="#TimesNewRomanPSMT-65" x="418.570312"/>
      <use xlink:href="#TimesNewRomanPSMT-72" x="462.955078"/>
      <use xlink:href="#TimesNewRomanPSMT-2d" x="494.255859"/>
      <use xlink:href="#TimesNewRomanPSMT-4c" x="527.556641"/>
      <use xlink:href="#TimesNewRomanPSMT-73" x="588.640625"/>
      <use xlink:href="#TimesNewRomanPSMT-74" x="627.556641"/>
      <use xlink:href="#TimesNewRomanPSMT-6d" x="655.339844"/>
     </g>
    </g>
    <g id="line2d_27">
     <path d="M 275.004375 175.240125 
L 287.004375 175.240125 
L 299.004375 175.240125 
" style="fill: none; stroke: #7f7f7f; stroke-width: 1.5; stroke-linecap: square"/>
    </g>
    <g id="text_22">
     <!-- Transformer -->
     <g transform="translate(308.604375 179.440125) scale(0.12 -0.12)">
      <use xlink:href="#TimesNewRomanPSMT-54"/>
      <use xlink:href="#TimesNewRomanPSMT-72" x="57.583984"/>
      <use xlink:href="#TimesNewRomanPSMT-61" x="90.884766"/>
      <use xlink:href="#TimesNewRomanPSMT-6e" x="135.269531"/>
      <use xlink:href="#TimesNewRomanPSMT-73" x="185.269531"/>
      <use xlink:href="#TimesNewRomanPSMT-66" x="224.185547"/>
      <use xlink:href="#TimesNewRomanPSMT-6f" x="257.486328"/>
      <use xlink:href="#TimesNewRomanPSMT-72" x="307.486328"/>
      <use xlink:href="#TimesNewRomanPSMT-6d" x="340.787109"/>
      <use xlink:href="#TimesNewRomanPSMT-65" x="418.570312"/>
      <use xlink:href="#TimesNewRomanPSMT-72" x="462.955078"/>
     </g>
    </g>
   </g>
  </g>
 </g>
 <defs>
  <clipPath id="p755e25f410">
   <rect x="57.6" y="41.472" width="357.12" height="266.112"/>
  </clipPath>
 </defs>
</svg>
